<?xml version="1.0" encoding="UTF-8"?>
<svg xmlns="http://www.w3.org/2000/svg" width="1000" height="270" viewBox="0 0 1000 270" role="img" aria-labelledby="title desc">
  <title id="title">Pay4att's GitHub daily activity</title>
  <desc id="desc">37 contributions across 8 active days in the last year.</desc>
  <defs>
    <linearGradient id="bg" x1="0" y1="0" x2="1" y2="1">
      <stop offset="0" stop-color="#0b1220" />
      <stop offset="1" stop-color="#111827" />
    </linearGradient>
    <linearGradient id="accent" x1="0" y1="0" x2="1" y2="0">
      <stop offset="0" stop-color="#38bdf8" />
      <stop offset="1" stop-color="#5eead4" />
    </linearGradient>
    <filter id="glow" x="-50%" y="-50%" width="200%" height="200%">
      <feGaussianBlur stdDeviation="18" />
    </filter>
    <style>
      text { font-family: ui-sans-serif, -apple-system, BlinkMacSystemFont, "Segoe UI", sans-serif; }
      .eyebrow { fill: #5eead4; font-size: 12px; font-weight: 700; letter-spacing: 2px; }
      .stat { fill: #f8fafc; font-size: 21px; font-weight: 700; }
      .label, .month, .day { fill: #94a3b8; font-size: 11px; }
      .month { font-weight: 600; }
    </style>
  </defs>
  <rect x="1" y="1" width="998" height="268" rx="20" fill="url(#bg)" stroke="#243044" />
  <circle cx="920" cy="-5" r="115" fill="#14b8a6" opacity=".12" filter="url(#glow)" />
  <text x="32" y="38" class="eyebrow">GITHUB / DAILY ACTIVITY</text>
  <text x="32" y="70" class="stat">37 <tspan class="label">contributions / year</tspan></text>
  <text x="330" y="70" class="stat">0 <tspan class="label">day streak</tspan></text>
  <text x="530" y="70" class="stat">8 <tspan class="label">active days / year</tspan></text>
  <text x="968" y="38" text-anchor="end" class="label">Updated 2026-07-21</text>
  <text x="88" y="98" class="month">Jul</text>
  <text x="120" y="98" class="month">Aug</text>
  <text x="200" y="98" class="month">Sep</text>
  <text x="264" y="98" class="month">Oct</text>
  <text x="328" y="98" class="month">Nov</text>
  <text x="408" y="98" class="month">Dec</text>
  <text x="472" y="98" class="month">Jan</text>
  <text x="536" y="98" class="month">Feb</text>
  <text x="600" y="98" class="month">Mar</text>
  <text x="680" y="98" class="month">Apr</text>
  <text x="744" y="98" class="month">May</text>
  <text x="824" y="98" class="month">Jun</text>
  <text x="888" y="98" class="month">Jul</text>
  <text x="32" y="138" class="day">Mon</text>
  <text x="32" y="170" class="day">Wed</text>
  <text x="32" y="202" class="day">Fri</text>
  <rect x="88" y="112" width="12" height="12" rx="3" fill="#1b2433"><title>2025-07-20: 0 contributions</title></rect>
  <rect x="88" y="128" width="12" height="12" rx="3" fill="#1b2433"><title>2025-07-21: 0 contributions</title></rect>
  <rect x="88" y="144" width="12" height="12" rx="3" fill="#1b2433"><title>2025-07-22: 0 contributions</title></rect>
  <rect x="88" y="160" width="12" height="12" rx="3" fill="#1b2433"><title>2025-07-23: 0 contributions</title></rect>
  <rect x="88" y="176" width="12" height="12" rx="3" fill="#1b2433"><title>2025-07-24: 0 contributions</title></rect>
  <rect x="88" y="192" width="12" height="12" rx="3" fill="#1b2433"><title>2025-07-25: 0 contributions</title></rect>
  <rect x="88" y="208" width="12" height="12" rx="3" fill="#1b2433"><title>2025-07-26: 0 contributions</title></rect>
  <rect x="104" y="112" width="12" height="12" rx="3" fill="#1b2433"><title>2025-07-27: 0 contributions</title></rect>
  <rect x="104" y="128" width="12" height="12" rx="3" fill="#1b2433"><title>2025-07-28: 0 contributions</title></rect>
  <rect x="104" y="144" width="12" height="12" rx="3" fill="#1b2433"><title>2025-07-29: 0 contributions</title></rect>
  <rect x="104" y="160" width="12" height="12" rx="3" fill="#1b2433"><title>2025-07-30: 0 contributions</title></rect>
  <rect x="104" y="176" width="12" height="12" rx="3" fill="#1b2433"><title>2025-07-31: 0 contributions</title></rect>
  <rect x="104" y="192" width="12" height="12" rx="3" fill="#1b2433"><title>2025-08-01: 0 contributions</title></rect>
  <rect x="104" y="208" width="12" height="12" rx="3" fill="#1b2433"><title>2025-08-02: 0 contributions</title></rect>
  <rect x="120" y="112" width="12" height="12" rx="3" fill="#1b2433"><title>2025-08-03: 0 contributions</title></rect>
  <rect x="120" y="128" width="12" height="12" rx="3" fill="#1b2433"><title>2025-08-04: 0 contributions</title></rect>
  <rect x="120" y="144" width="12" height="12" rx="3" fill="#1b2433"><title>2025-08-05: 0 contributions</title></rect>
  <rect x="120" y="160" width="12" height="12" rx="3" fill="#1b2433"><title>2025-08-06: 0 contributions</title></rect>
  <rect x="120" y="176" width="12" height="12" rx="3" fill="#1b2433"><title>2025-08-07: 0 contributions</title></rect>
  <rect x="120" y="192" width="12" height="12" rx="3" fill="#1b2433"><title>2025-08-08: 0 contributions</title></rect>
  <rect x="120" y="208" width="12" height="12" rx="3" fill="#1b2433"><title>2025-08-09: 0 contributions</title></rect>
  <rect x="136" y="112" width="12" height="12" rx="3" fill="#1b2433"><title>2025-08-10: 0 contributions</title></rect>
  <rect x="136" y="128" width="12" height="12" rx="3" fill="#1b2433"><title>2025-08-11: 0 contributions</title></rect>
  <rect x="136" y="144" width="12" height="12" rx="3" fill="#1b2433"><title>2025-08-12: 0 contributions</title></rect>
  <rect x="136" y="160" width="12" height="12" rx="3" fill="#1b2433"><title>2025-08-13: 0 contributions</title></rect>
  <rect x="136" y="176" width="12" height="12" rx="3" fill="#1b2433"><title>2025-08-14: 0 contributions</title></rect>
  <rect x="136" y="192" width="12" height="12" rx="3" fill="#1b2433"><title>2025-08-15: 0 contributions</title></rect>
  <rect x="136" y="208" width="12" height="12" rx="3" fill="#1b2433"><title>2025-08-16: 0 contributions</title></rect>
  <rect x="152" y="112" width="12" height="12" rx="3" fill="#1b2433"><title>2025-08-17: 0 contributions</title></rect>
  <rect x="152" y="128" width="12" height="12" rx="3" fill="#1b2433"><title>2025-08-18: 0 contributions</title></rect>
  <rect x="152" y="144" width="12" height="12" rx="3" fill="#1b2433"><title>2025-08-19: 0 contributions</title></rect>
  <rect x="152" y="160" width="12" height="12" rx="3" fill="#1b2433"><title>2025-08-20: 0 contributions</title></rect>
  <rect x="152" y="176" width="12" height="12" rx="3" fill="#1b2433"><title>2025-08-21: 0 contributions</title></rect>
  <rect x="152" y="192" width="12" height="12" rx="3" fill="#1b2433"><title>2025-08-22: 0 contributions</title></rect>
  <rect x="152" y="208" width="12" height="12" rx="3" fill="#1b2433"><title>2025-08-23: 0 contributions</title></rect>
  <rect x="168" y="112" width="12" height="12" rx="3" fill="#1b2433"><title>2025-08-24: 0 contributions</title></rect>
  <rect x="168" y="128" width="12" height="12" rx="3" fill="#1b2433"><title>2025-08-25: 0 contributions</title></rect>
  <rect x="168" y="144" width="12" height="12" rx="3" fill="#1b2433"><title>2025-08-26: 0 contributions</title></rect>
  <rect x="168" y="160" width="12" height="12" rx="3" fill="#1b2433"><title>2025-08-27: 0 contributions</title></rect>
  <rect x="168" y="176" width="12" height="12" rx="3" fill="#1b2433"><title>2025-08-28: 0 contributions</title></rect>
  <rect x="168" y="192" width="12" height="12" rx="3" fill="#1b2433"><title>2025-08-29: 0 contributions</title></rect>
  <rect x="168" y="208" width="12" height="12" rx="3" fill="#1b2433"><title>2025-08-30: 0 contributions</title></rect>
  <rect x="184" y="112" width="12" height="12" rx="3" fill="#1b2433"><title>2025-08-31: 0 contributions</title></rect>
  <rect x="184" y="128" width="12" height="12" rx="3" fill="#1b2433"><title>2025-09-01: 0 contributions</title></rect>
  <rect x="184" y="144" width="12" height="12" rx="3" fill="#1b2433"><title>2025-09-02: 0 contributions</title></rect>
  <rect x="184" y="160" width="12" height="12" rx="3" fill="#1b2433"><title>2025-09-03: 0 contributions</title></rect>
  <rect x="184" y="176" width="12" height="12" rx="3" fill="#1b2433"><title>2025-09-04: 0 contributions</title></rect>
  <rect x="184" y="192" width="12" height="12" rx="3" fill="#1b2433"><title>2025-09-05: 0 contributions</title></rect>
  <rect x="184" y="208" width="12" height="12" rx="3" fill="#1b2433"><title>2025-09-06: 0 contributions</title></rect>
  <rect x="200" y="112" width="12" height="12" rx="3" fill="#1b2433"><title>2025-09-07: 0 contributions</title></rect>
  <rect x="200" y="128" width="12" height="12" rx="3" fill="#1b2433"><title>2025-09-08: 0 contributions</title></rect>
  <rect x="200" y="144" width="12" height="12" rx="3" fill="#1b2433"><title>2025-09-09: 0 contributions</title></rect>
  <rect x="200" y="160" width="12" height="12" rx="3" fill="#1b2433"><title>2025-09-10: 0 contributions</title></rect>
  <rect x="200" y="176" width="12" height="12" rx="3" fill="#1b2433"><title>2025-09-11: 0 contributions</title></rect>
  <rect x="200" y="192" width="12" height="12" rx="3" fill="#1b2433"><title>2025-09-12: 0 contributions</title></rect>
  <rect x="200" y="208" width="12" height="12" rx="3" fill="#1b2433"><title>2025-09-13: 0 contributions</title></rect>
  <rect x="216" y="112" width="12" height="12" rx="3" fill="#1b2433"><title>2025-09-14: 0 contributions</title></rect>
  <rect x="216" y="128" width="12" height="12" rx="3" fill="#1b2433"><title>2025-09-15: 0 contributions</title></rect>
  <rect x="216" y="144" width="12" height="12" rx="3" fill="#1b2433"><title>2025-09-16: 0 contributions</title></rect>
  <rect x="216" y="160" width="12" height="12" rx="3" fill="#1b2433"><title>2025-09-17: 0 contributions</title></rect>
  <rect x="216" y="176" width="12" height="12" rx="3" fill="#1b2433"><title>2025-09-18: 0 contributions</title></rect>
  <rect x="216" y="192" width="12" height="12" rx="3" fill="#1b2433"><title>2025-09-19: 0 contributions</title></rect>
  <rect x="216" y="208" width="12" height="12" rx="3" fill="#1b2433"><title>2025-09-20: 0 contributions</title></rect>
  <rect x="232" y="112" width="12" height="12" rx="3" fill="#1b2433"><title>2025-09-21: 0 contributions</title></rect>
  <rect x="232" y="128" width="12" height="12" rx="3" fill="#1b2433"><title>2025-09-22: 0 contributions</title></rect>
  <rect x="232" y="144" width="12" height="12" rx="3" fill="#1b2433"><title>2025-09-23: 0 contributions</title></rect>
  <rect x="232" y="160" width="12" height="12" rx="3" fill="#1b2433"><title>2025-09-24: 0 contributions</title></rect>
  <rect x="232" y="176" width="12" height="12" rx="3" fill="#1b2433"><title>2025-09-25: 0 contributions</title></rect>
  <rect x="232" y="192" width="12" height="12" rx="3" fill="#1b2433"><title>2025-09-26: 0 contributions</title></rect>
  <rect x="232" y="208" width="12" height="12" rx="3" fill="#1b2433"><title>2025-09-27: 0 contributions</title></rect>
  <rect x="248" y="112" width="12" height="12" rx="3" fill="#1b2433"><title>2025-09-28: 0 contributions</title></rect>
  <rect x="248" y="128" width="12" height="12" rx="3" fill="#1b2433"><title>2025-09-29: 0 contributions</title></rect>
  <rect x="248" y="144" width="12" height="12" rx="3" fill="#1b2433"><title>2025-09-30: 0 contributions</title></rect>
  <rect x="248" y="160" width="12" height="12" rx="3" fill="#1b2433"><title>2025-10-01: 0 contributions</title></rect>
  <rect x="248" y="176" width="12" height="12" rx="3" fill="#1b2433"><title>2025-10-02: 0 contributions</title></rect>
  <rect x="248" y="192" width="12" height="12" rx="3" fill="#1b2433"><title>2025-10-03: 0 contributions</title></rect>
  <rect x="248" y="208" width="12" height="12" rx="3" fill="#1b2433"><title>2025-10-04: 0 contributions</title></rect>
  <rect x="264" y="112" width="12" height="12" rx="3" fill="#1b2433"><title>2025-10-05: 0 contributions</title></rect>
  <rect x="264" y="128" width="12" height="12" rx="3" fill="#1b2433"><title>2025-10-06: 0 contributions</title></rect>
  <rect x="264" y="144" width="12" height="12" rx="3" fill="#1b2433"><title>2025-10-07: 0 contributions</title></rect>
  <rect x="264" y="160" width="12" height="12" rx="3" fill="#1b2433"><title>2025-10-08: 0 contributions</title></rect>
  <rect x="264" y="176" width="12" height="12" rx="3" fill="#1b2433"><title>2025-10-09: 0 contributions</title></rect>
  <rect x="264" y="192" width="12" height="12" rx="3" fill="#1b2433"><title>2025-10-10: 0 contributions</title></rect>
  <rect x="264" y="208" width="12" height="12" rx="3" fill="#1b2433"><title>2025-10-11: 0 contributions</title></rect>
  <rect x="280" y="112" width="12" height="12" rx="3" fill="#1b2433"><title>2025-10-12: 0 contributions</title></rect>
  <rect x="280" y="128" width="12" height="12" rx="3" fill="#1b2433"><title>2025-10-13: 0 contributions</title></rect>
  <rect x="280" y="144" width="12" height="12" rx="3" fill="#1b2433"><title>2025-10-14: 0 contributions</title></rect>
  <rect x="280" y="160" width="12" height="12" rx="3" fill="#1b2433"><title>2025-10-15: 0 contributions</title></rect>
  <rect x="280" y="176" width="12" height="12" rx="3" fill="#1b2433"><title>2025-10-16: 0 contributions</title></rect>
  <rect x="280" y="192" width="12" height="12" rx="3" fill="#1b2433"><title>2025-10-17: 0 contributions</title></rect>
  <rect x="280" y="208" width="12" height="12" rx="3" fill="#1b2433"><title>2025-10-18: 0 contributions</title></rect>
  <rect x="296" y="112" width="12" height="12" rx="3" fill="#1b2433"><title>2025-10-19: 0 contributions</title></rect>
  <rect x="296" y="128" width="12" height="12" rx="3" fill="#1b2433"><title>2025-10-20: 0 contributions</title></rect>
  <rect x="296" y="144" width="12" height="12" rx="3" fill="#1b2433"><title>2025-10-21: 0 contributions</title></rect>
  <rect x="296" y="160" width="12" height="12" rx="3" fill="#1b2433"><title>2025-10-22: 0 contributions</title></rect>
  <rect x="296" y="176" width="12" height="12" rx="3" fill="#1b2433"><title>2025-10-23: 0 contributions</title></rect>
  <rect x="296" y="192" width="12" height="12" rx="3" fill="#1b2433"><title>2025-10-24: 0 contributions</title></rect>
  <rect x="296" y="208" width="12" height="12" rx="3" fill="#1b2433"><title>2025-10-25: 0 contributions</title></rect>
  <rect x="312" y="112" width="12" height="12" rx="3" fill="#1b2433"><title>2025-10-26: 0 contributions</title></rect>
  <rect x="312" y="128" width="12" height="12" rx="3" fill="#1b2433"><title>2025-10-27: 0 contributions</title></rect>
  <rect x="312" y="144" width="12" height="12" rx="3" fill="#1b2433"><title>2025-10-28: 0 contributions</title></rect>
  <rect x="312" y="160" width="12" height="12" rx="3" fill="#1b2433"><title>2025-10-29: 0 contributions</title></rect>
  <rect x="312" y="176" width="12" height="12" rx="3" fill="#1b2433"><title>2025-10-30: 0 contributions</title></rect>
  <rect x="312" y="192" width="12" height="12" rx="3" fill="#1b2433"><title>2025-10-31: 0 contributions</title></rect>
  <rect x="312" y="208" width="12" height="12" rx="3" fill="#1b2433"><title>2025-11-01: 0 contributions</title></rect>
  <rect x="328" y="112" width="12" height="12" rx="3" fill="#1b2433"><title>2025-11-02: 0 contributions</title></rect>
  <rect x="328" y="128" width="12" height="12" rx="3" fill="#1b2433"><title>2025-11-03: 0 contributions</title></rect>
  <rect x="328" y="144" width="12" height="12" rx="3" fill="#1b2433"><title>2025-11-04: 0 contributions</title></rect>
  <rect x="328" y="160" width="12" height="12" rx="3" fill="#1b2433"><title>2025-11-05: 0 contributions</title></rect>
  <rect x="328" y="176" width="12" height="12" rx="3" fill="#1b2433"><title>2025-11-06: 0 contributions</title></rect>
  <rect x="328" y="192" width="12" height="12" rx="3" fill="#1b2433"><title>2025-11-07: 0 contributions</title></rect>
  <rect x="328" y="208" width="12" height="12" rx="3" fill="#1b2433"><title>2025-11-08: 0 contributions</title></rect>
  <rect x="344" y="112" width="12" height="12" rx="3" fill="#1b2433"><title>2025-11-09: 0 contributions</title></rect>
  <rect x="344" y="128" width="12" height="12" rx="3" fill="#1b2433"><title>2025-11-10: 0 contributions</title></rect>
  <rect x="344" y="144" width="12" height="12" rx="3" fill="#1b2433"><title>2025-11-11: 0 contributions</title></rect>
  <rect x="344" y="160" width="12" height="12" rx="3" fill="#1b2433"><title>2025-11-12: 0 contributions</title></rect>
  <rect x="344" y="176" width="12" height="12" rx="3" fill="#1b2433"><title>2025-11-13: 0 contributions</title></rect>
  <rect x="344" y="192" width="12" height="12" rx="3" fill="#1b2433"><title>2025-11-14: 0 contributions</title></rect>
  <rect x="344" y="208" width="12" height="12" rx="3" fill="#1b2433"><title>2025-11-15: 0 contributions</title></rect>
  <rect x="360" y="112" width="12" height="12" rx="3" fill="#1b2433"><title>2025-11-16: 0 contributions</title></rect>
  <rect x="360" y="128" width="12" height="12" rx="3" fill="#1b2433"><title>2025-11-17: 0 contributions</title></rect>
  <rect x="360" y="144" width="12" height="12" rx="3" fill="#1b2433"><title>2025-11-18: 0 contributions</title></rect>
  <rect x="360" y="160" width="12" height="12" rx="3" fill="#1b2433"><title>2025-11-19: 0 contributions</title></rect>
  <rect x="360" y="176" width="12" height="12" rx="3" fill="#1b2433"><title>2025-11-20: 0 contributions</title></rect>
  <rect x="360" y="192" width="12" height="12" rx="3" fill="#1b2433"><title>2025-11-21: 0 contributions</title></rect>
  <rect x="360" y="208" width="12" height="12" rx="3" fill="#1b2433"><title>2025-11-22: 0 contributions</title></rect>
  <rect x="376" y="112" width="12" height="12" rx="3" fill="#1b2433"><title>2025-11-23: 0 contributions</title></rect>
  <rect x="376" y="128" width="12" height="12" rx="3" fill="#1b2433"><title>2025-11-24: 0 contributions</title></rect>
  <rect x="376" y="144" width="12" height="12" rx="3" fill="#1b2433"><title>2025-11-25: 0 contributions</title></rect>
  <rect x="376" y="160" width="12" height="12" rx="3" fill="#1b2433"><title>2025-11-26: 0 contributions</title></rect>
  <rect x="376" y="176" width="12" height="12" rx="3" fill="#1b2433"><title>2025-11-27: 0 contributions</title></rect>
  <rect x="376" y="192" width="12" height="12" rx="3" fill="#1b2433"><title>2025-11-28: 0 contributions</title></rect>
  <rect x="376" y="208" width="12" height="12" rx="3" fill="#1b2433"><title>2025-11-29: 0 contributions</title></rect>
  <rect x="392" y="112" width="12" height="12" rx="3" fill="#1b2433"><title>2025-11-30: 0 contributions</title></rect>
  <rect x="392" y="128" width="12" height="12" rx="3" fill="#1b2433"><title>2025-12-01: 0 contributions</title></rect>
  <rect x="392" y="144" width="12" height="12" rx="3" fill="#1b2433"><title>2025-12-02: 0 contributions</title></rect>
  <rect x="392" y="160" width="12" height="12" rx="3" fill="#1b2433"><title>2025-12-03: 0 contributions</title></rect>
  <rect x="392" y="176" width="12" height="12" rx="3" fill="#1b2433"><title>2025-12-04: 0 contributions</title></rect>
  <rect x="392" y="192" width="12" height="12" rx="3" fill="#1b2433"><title>2025-12-05: 0 contributions</title></rect>
  <rect x="392" y="208" width="12" height="12" rx="3" fill="#1b2433"><title>2025-12-06: 0 contributions</title></rect>
  <rect x="408" y="112" width="12" height="12" rx="3" fill="#1b2433"><title>2025-12-07: 0 contributions</title></rect>
  <rect x="408" y="128" width="12" height="12" rx="3" fill="#1b2433"><title>2025-12-08: 0 contributions</title></rect>
  <rect x="408" y="144" width="12" height="12" rx="3" fill="#1b2433"><title>2025-12-09: 0 contributions</title></rect>
  <rect x="408" y="160" width="12" height="12" rx="3" fill="#1b2433"><title>2025-12-10: 0 contributions</title></rect>
  <rect x="408" y="176" width="12" height="12" rx="3" fill="#1b2433"><title>2025-12-11: 0 contributions</title></rect>
  <rect x="408" y="192" width="12" height="12" rx="3" fill="#1b2433"><title>2025-12-12: 0 contributions</title></rect>
  <rect x="408" y="208" width="12" height="12" rx="3" fill="#1b2433"><title>2025-12-13: 0 contributions</title></rect>
  <rect x="424" y="112" width="12" height="12" rx="3" fill="#1b2433"><title>2025-12-14: 0 contributions</title></rect>
  <rect x="424" y="128" width="12" height="12" rx="3" fill="#1b2433"><title>2025-12-15: 0 contributions</title></rect>
  <rect x="424" y="144" width="12" height="12" rx="3" fill="#1b2433"><title>2025-12-16: 0 contributions</title></rect>
  <rect x="424" y="160" width="12" height="12" rx="3" fill="#1b2433"><title>2025-12-17: 0 contributions</title></rect>
  <rect x="424" y="176" width="12" height="12" rx="3" fill="#1b2433"><title>2025-12-18: 0 contributions</title></rect>
  <rect x="424" y="192" width="12" height="12" rx="3" fill="#5eead4"><title>2025-12-19: 9 contributions</title></rect>
  <rect x="424" y="208" width="12" height="12" rx="3" fill="#14b8a6"><title>2025-12-20: 4 contributions</title></rect>
  <rect x="440" y="112" width="12" height="12" rx="3" fill="#1b2433"><title>2025-12-21: 0 contributions</title></rect>
  <rect x="440" y="128" width="12" height="12" rx="3" fill="#1b2433"><title>2025-12-22: 0 contributions</title></rect>
  <rect x="440" y="144" width="12" height="12" rx="3" fill="#1b2433"><title>2025-12-23: 0 contributions</title></rect>
  <rect x="440" y="160" width="12" height="12" rx="3" fill="#1b2433"><title>2025-12-24: 0 contributions</title></rect>
  <rect x="440" y="176" width="12" height="12" rx="3" fill="#1b2433"><title>2025-12-25: 0 contributions</title></rect>
  <rect x="440" y="192" width="12" height="12" rx="3" fill="#1b2433"><title>2025-12-26: 0 contributions</title></rect>
  <rect x="440" y="208" width="12" height="12" rx="3" fill="#1b2433"><title>2025-12-27: 0 contributions</title></rect>
  <rect x="456" y="112" width="12" height="12" rx="3" fill="#1b2433"><title>2025-12-28: 0 contributions</title></rect>
  <rect x="456" y="128" width="12" height="12" rx="3" fill="#1b2433"><title>2025-12-29: 0 contributions</title></rect>
  <rect x="456" y="144" width="12" height="12" rx="3" fill="#1b2433"><title>2025-12-30: 0 contributions</title></rect>
  <rect x="456" y="160" width="12" height="12" rx="3" fill="#1b2433"><title>2025-12-31: 0 contributions</title></rect>
  <rect x="456" y="176" width="12" height="12" rx="3" fill="#1b2433"><title>2026-01-01: 0 contributions</title></rect>
  <rect x="456" y="192" width="12" height="12" rx="3" fill="#1b2433"><title>2026-01-02: 0 contributions</title></rect>
  <rect x="456" y="208" width="12" height="12" rx="3" fill="#1b2433"><title>2026-01-03: 0 contributions</title></rect>
  <rect x="472" y="112" width="12" height="12" rx="3" fill="#1b2433"><title>2026-01-04: 0 contributions</title></rect>
  <rect x="472" y="128" width="12" height="12" rx="3" fill="#1b2433"><title>2026-01-05: 0 contributions</title></rect>
  <rect x="472" y="144" width="12" height="12" rx="3" fill="#1b2433"><title>2026-01-06: 0 contributions</title></rect>
  <rect x="472" y="160" width="12" height="12" rx="3" fill="#1b2433"><title>2026-01-07: 0 contributions</title></rect>
  <rect x="472" y="176" width="12" height="12" rx="3" fill="#1b2433"><title>2026-01-08: 0 contributions</title></rect>
  <rect x="472" y="192" width="12" height="12" rx="3" fill="#1b2433"><title>2026-01-09: 0 contributions</title></rect>
  <rect x="472" y="208" width="12" height="12" rx="3" fill="#1b2433"><title>2026-01-10: 0 contributions</title></rect>
  <rect x="488" y="112" width="12" height="12" rx="3" fill="#1b2433"><title>2026-01-11: 0 contributions</title></rect>
  <rect x="488" y="128" width="12" height="12" rx="3" fill="#1b2433"><title>2026-01-12: 0 contributions</title></rect>
  <rect x="488" y="144" width="12" height="12" rx="3" fill="#1b2433"><title>2026-01-13: 0 contributions</title></rect>
  <rect x="488" y="160" width="12" height="12" rx="3" fill="#1b2433"><title>2026-01-14: 0 contributions</title></rect>
  <rect x="488" y="176" width="12" height="12" rx="3" fill="#1b2433"><title>2026-01-15: 0 contributions</title></rect>
  <rect x="488" y="192" width="12" height="12" rx="3" fill="#1b2433"><title>2026-01-16: 0 contributions</title></rect>
  <rect x="488" y="208" width="12" height="12" rx="3" fill="#1b2433"><title>2026-01-17: 0 contributions</title></rect>
  <rect x="504" y="112" width="12" height="12" rx="3" fill="#1b2433"><title>2026-01-18: 0 contributions</title></rect>
  <rect x="504" y="128" width="12" height="12" rx="3" fill="#1b2433"><title>2026-01-19: 0 contributions</title></rect>
  <rect x="504" y="144" width="12" height="12" rx="3" fill="#1b2433"><title>2026-01-20: 0 contributions</title></rect>
  <rect x="504" y="160" width="12" height="12" rx="3" fill="#1b2433"><title>2026-01-21: 0 contributions</title></rect>
  <rect x="504" y="176" width="12" height="12" rx="3" fill="#1b2433"><title>2026-01-22: 0 contributions</title></rect>
  <rect x="504" y="192" width="12" height="12" rx="3" fill="#1b2433"><title>2026-01-23: 0 contributions</title></rect>
  <rect x="504" y="208" width="12" height="12" rx="3" fill="#1b2433"><title>2026-01-24: 0 contributions</title></rect>
  <rect x="520" y="112" width="12" height="12" rx="3" fill="#1b2433"><title>2026-01-25: 0 contributions</title></rect>
  <rect x="520" y="128" width="12" height="12" rx="3" fill="#1b2433"><title>2026-01-26: 0 contributions</title></rect>
  <rect x="520" y="144" width="12" height="12" rx="3" fill="#1b2433"><title>2026-01-27: 0 contributions</title></rect>
  <rect x="520" y="160" width="12" height="12" rx="3" fill="#1b2433"><title>2026-01-28: 0 contributions</title></rect>
  <rect x="520" y="176" width="12" height="12" rx="3" fill="#1b2433"><title>2026-01-29: 0 contributions</title></rect>
  <rect x="520" y="192" width="12" height="12" rx="3" fill="#1b2433"><title>2026-01-30: 0 contributions</title></rect>
  <rect x="520" y="208" width="12" height="12" rx="3" fill="#1b2433"><title>2026-01-31: 0 contributions</title></rect>
  <rect x="536" y="112" width="12" height="12" rx="3" fill="#1b2433"><title>2026-02-01: 0 contributions</title></rect>
  <rect x="536" y="128" width="12" height="12" rx="3" fill="#1b2433"><title>2026-02-02: 0 contributions</title></rect>
  <rect x="536" y="144" width="12" height="12" rx="3" fill="#1b2433"><title>2026-02-03: 0 contributions</title></rect>
  <rect x="536" y="160" width="12" height="12" rx="3" fill="#1b2433"><title>2026-02-04: 0 contributions</title></rect>
  <rect x="536" y="176" width="12" height="12" rx="3" fill="#1b2433"><title>2026-02-05: 0 contributions</title></rect>
  <rect x="536" y="192" width="12" height="12" rx="3" fill="#1b2433"><title>2026-02-06: 0 contributions</title></rect>
  <rect x="536" y="208" width="12" height="12" rx="3" fill="#1b2433"><title>2026-02-07: 0 contributions</title></rect>
  <rect x="552" y="112" width="12" height="12" rx="3" fill="#1b2433"><title>2026-02-08: 0 contributions</title></rect>
  <rect x="552" y="128" width="12" height="12" rx="3" fill="#1b2433"><title>2026-02-09: 0 contributions</title></rect>
  <rect x="552" y="144" width="12" height="12" rx="3" fill="#1b2433"><title>2026-02-10: 0 contributions</title></rect>
  <rect x="552" y="160" width="12" height="12" rx="3" fill="#1b2433"><title>2026-02-11: 0 contributions</title></rect>
  <rect x="552" y="176" width="12" height="12" rx="3" fill="#1b2433"><title>2026-02-12: 0 contributions</title></rect>
  <rect x="552" y="192" width="12" height="12" rx="3" fill="#1b2433"><title>2026-02-13: 0 contributions</title></rect>
  <rect x="552" y="208" width="12" height="12" rx="3" fill="#1b2433"><title>2026-02-14: 0 contributions</title></rect>
  <rect x="568" y="112" width="12" height="12" rx="3" fill="#1b2433"><title>2026-02-15: 0 contributions</title></rect>
  <rect x="568" y="128" width="12" height="12" rx="3" fill="#1b2433"><title>2026-02-16: 0 contributions</title></rect>
  <rect x="568" y="144" width="12" height="12" rx="3" fill="#1b2433"><title>2026-02-17: 0 contributions</title></rect>
  <rect x="568" y="160" width="12" height="12" rx="3" fill="#1b2433"><title>2026-02-18: 0 contributions</title></rect>
  <rect x="568" y="176" width="12" height="12" rx="3" fill="#1b2433"><title>2026-02-19: 0 contributions</title></rect>
  <rect x="568" y="192" width="12" height="12" rx="3" fill="#1b2433"><title>2026-02-20: 0 contributions</title></rect>
  <rect x="568" y="208" width="12" height="12" rx="3" fill="#1b2433"><title>2026-02-21: 0 contributions</title></rect>
  <rect x="584" y="112" width="12" height="12" rx="3" fill="#1b2433"><title>2026-02-22: 0 contributions</title></rect>
  <rect x="584" y="128" width="12" height="12" rx="3" fill="#1b2433"><title>2026-02-23: 0 contributions</title></rect>
  <rect x="584" y="144" width="12" height="12" rx="3" fill="#1b2433"><title>2026-02-24: 0 contributions</title></rect>
  <rect x="584" y="160" width="12" height="12" rx="3" fill="#1b2433"><title>2026-02-25: 0 contributions</title></rect>
  <rect x="584" y="176" width="12" height="12" rx="3" fill="#1b2433"><title>2026-02-26: 0 contributions</title></rect>
  <rect x="584" y="192" width="12" height="12" rx="3" fill="#1b2433"><title>2026-02-27: 0 contributions</title></rect>
  <rect x="584" y="208" width="12" height="12" rx="3" fill="#1b2433"><title>2026-02-28: 0 contributions</title></rect>
  <rect x="600" y="112" width="12" height="12" rx="3" fill="#1b2433"><title>2026-03-01: 0 contributions</title></rect>
  <rect x="600" y="128" width="12" height="12" rx="3" fill="#1b2433"><title>2026-03-02: 0 contributions</title></rect>
  <rect x="600" y="144" width="12" height="12" rx="3" fill="#1b2433"><title>2026-03-03: 0 contributions</title></rect>
  <rect x="600" y="160" width="12" height="12" rx="3" fill="#1b2433"><title>2026-03-04: 0 contributions</title></rect>
  <rect x="600" y="176" width="12" height="12" rx="3" fill="#1b2433"><title>2026-03-05: 0 contributions</title></rect>
  <rect x="600" y="192" width="12" height="12" rx="3" fill="#1b2433"><title>2026-03-06: 0 contributions</title></rect>
  <rect x="600" y="208" width="12" height="12" rx="3" fill="#1b2433"><title>2026-03-07: 0 contributions</title></rect>
  <rect x="616" y="112" width="12" height="12" rx="3" fill="#1b2433"><title>2026-03-08: 0 contributions</title></rect>
  <rect x="616" y="128" width="12" height="12" rx="3" fill="#1b2433"><title>2026-03-09: 0 contributions</title></rect>
  <rect x="616" y="144" width="12" height="12" rx="3" fill="#1b2433"><title>2026-03-10: 0 contributions</title></rect>
  <rect x="616" y="160" width="12" height="12" rx="3" fill="#1b2433"><title>2026-03-11: 0 contributions</title></rect>
  <rect x="616" y="176" width="12" height="12" rx="3" fill="#1b2433"><title>2026-03-12: 0 contributions</title></rect>
  <rect x="616" y="192" width="12" height="12" rx="3" fill="#1b2433"><title>2026-03-13: 0 contributions</title></rect>
  <rect x="616" y="208" width="12" height="12" rx="3" fill="#1b2433"><title>2026-03-14: 0 contributions</title></rect>
  <rect x="632" y="112" width="12" height="12" rx="3" fill="#1b2433"><title>2026-03-15: 0 contributions</title></rect>
  <rect x="632" y="128" width="12" height="12" rx="3" fill="#1b2433"><title>2026-03-16: 0 contributions</title></rect>
  <rect x="632" y="144" width="12" height="12" rx="3" fill="#1b2433"><title>2026-03-17: 0 contributions</title></rect>
  <rect x="632" y="160" width="12" height="12" rx="3" fill="#1b2433"><title>2026-03-18: 0 contributions</title></rect>
  <rect x="632" y="176" width="12" height="12" rx="3" fill="#1b2433"><title>2026-03-19: 0 contributions</title></rect>
  <rect x="632" y="192" width="12" height="12" rx="3" fill="#1b2433"><title>2026-03-20: 0 contributions</title></rect>
  <rect x="632" y="208" width="12" height="12" rx="3" fill="#1b2433"><title>2026-03-21: 0 contributions</title></rect>
  <rect x="648" y="112" width="12" height="12" rx="3" fill="#1b2433"><title>2026-03-22: 0 contributions</title></rect>
  <rect x="648" y="128" width="12" height="12" rx="3" fill="#1b2433"><title>2026-03-23: 0 contributions</title></rect>
  <rect x="648" y="144" width="12" height="12" rx="3" fill="#1b2433"><title>2026-03-24: 0 contributions</title></rect>
  <rect x="648" y="160" width="12" height="12" rx="3" fill="#1b2433"><title>2026-03-25: 0 contributions</title></rect>
  <rect x="648" y="176" width="12" height="12" rx="3" fill="#1b2433"><title>2026-03-26: 0 contributions</title></rect>
  <rect x="648" y="192" width="12" height="12" rx="3" fill="#1b2433"><title>2026-03-27: 0 contributions</title></rect>
  <rect x="648" y="208" width="12" height="12" rx="3" fill="#1b2433"><title>2026-03-28: 0 contributions</title></rect>
  <rect x="664" y="112" width="12" height="12" rx="3" fill="#1b2433"><title>2026-03-29: 0 contributions</title></rect>
  <rect x="664" y="128" width="12" height="12" rx="3" fill="#1b2433"><title>2026-03-30: 0 contributions</title></rect>
  <rect x="664" y="144" width="12" height="12" rx="3" fill="#1b2433"><title>2026-03-31: 0 contributions</title></rect>
  <rect x="664" y="160" width="12" height="12" rx="3" fill="#1b2433"><title>2026-04-01: 0 contributions</title></rect>
  <rect x="664" y="176" width="12" height="12" rx="3" fill="#1b2433"><title>2026-04-02: 0 contributions</title></rect>
  <rect x="664" y="192" width="12" height="12" rx="3" fill="#1b2433"><title>2026-04-03: 0 contributions</title></rect>
  <rect x="664" y="208" width="12" height="12" rx="3" fill="#1b2433"><title>2026-04-04: 0 contributions</title></rect>
  <rect x="680" y="112" width="12" height="12" rx="3" fill="#1b2433"><title>2026-04-05: 0 contributions</title></rect>
  <rect x="680" y="128" width="12" height="12" rx="3" fill="#1b2433"><title>2026-04-06: 0 contributions</title></rect>
  <rect x="680" y="144" width="12" height="12" rx="3" fill="#1b2433"><title>2026-04-07: 0 contributions</title></rect>
  <rect x="680" y="160" width="12" height="12" rx="3" fill="#1b2433"><title>2026-04-08: 0 contributions</title></rect>
  <rect x="680" y="176" width="12" height="12" rx="3" fill="#1b2433"><title>2026-04-09: 0 contributions</title></rect>
  <rect x="680" y="192" width="12" height="12" rx="3" fill="#1b2433"><title>2026-04-10: 0 contributions</title></rect>
  <rect x="680" y="208" width="12" height="12" rx="3" fill="#1b2433"><title>2026-04-11: 0 contributions</title></rect>
  <rect x="696" y="112" width="12" height="12" rx="3" fill="#1b2433"><title>2026-04-12: 0 contributions</title></rect>
  <rect x="696" y="128" width="12" height="12" rx="3" fill="#1b2433"><title>2026-04-13: 0 contributions</title></rect>
  <rect x="696" y="144" width="12" height="12" rx="3" fill="#1b2433"><title>2026-04-14: 0 contributions</title></rect>
  <rect x="696" y="160" width="12" height="12" rx="3" fill="#1b2433"><title>2026-04-15: 0 contributions</title></rect>
  <rect x="696" y="176" width="12" height="12" rx="3" fill="#1b2433"><title>2026-04-16: 0 contributions</title></rect>
  <rect x="696" y="192" width="12" height="12" rx="3" fill="#1b2433"><title>2026-04-17: 0 contributions</title></rect>
  <rect x="696" y="208" width="12" height="12" rx="3" fill="#1b2433"><title>2026-04-18: 0 contributions</title></rect>
  <rect x="712" y="112" width="12" height="12" rx="3" fill="#1b2433"><title>2026-04-19: 0 contributions</title></rect>
  <rect x="712" y="128" width="12" height="12" rx="3" fill="#1b2433"><title>2026-04-20: 0 contributions</title></rect>
  <rect x="712" y="144" width="12" height="12" rx="3" fill="#1b2433"><title>2026-04-21: 0 contributions</title></rect>
  <rect x="712" y="160" width="12" height="12" rx="3" fill="#1b2433"><title>2026-04-22: 0 contributions</title></rect>
  <rect x="712" y="176" width="12" height="12" rx="3" fill="#1b2433"><title>2026-04-23: 0 contributions</title></rect>
  <rect x="712" y="192" width="12" height="12" rx="3" fill="#1b2433"><title>2026-04-24: 0 contributions</title></rect>
  <rect x="712" y="208" width="12" height="12" rx="3" fill="#1b2433"><title>2026-04-25: 0 contributions</title></rect>
  <rect x="728" y="112" width="12" height="12" rx="3" fill="#1b2433"><title>2026-04-26: 0 contributions</title></rect>
  <rect x="728" y="128" width="12" height="12" rx="3" fill="#1b2433"><title>2026-04-27: 0 contributions</title></rect>
  <rect x="728" y="144" width="12" height="12" rx="3" fill="#1b2433"><title>2026-04-28: 0 contributions</title></rect>
  <rect x="728" y="160" width="12" height="12" rx="3" fill="#1b2433"><title>2026-04-29: 0 contributions</title></rect>
  <rect x="728" y="176" width="12" height="12" rx="3" fill="#1b2433"><title>2026-04-30: 0 contributions</title></rect>
  <rect x="728" y="192" width="12" height="12" rx="3" fill="#1b2433"><title>2026-05-01: 0 contributions</title></rect>
  <rect x="728" y="208" width="12" height="12" rx="3" fill="#1b2433"><title>2026-05-02: 0 contributions</title></rect>
  <rect x="744" y="112" width="12" height="12" rx="3" fill="#1b2433"><title>2026-05-03: 0 contributions</title></rect>
  <rect x="744" y="128" width="12" height="12" rx="3" fill="#1b2433"><title>2026-05-04: 0 contributions</title></rect>
  <rect x="744" y="144" width="12" height="12" rx="3" fill="#1b2433"><title>2026-05-05: 0 contributions</title></rect>
  <rect x="744" y="160" width="12" height="12" rx="3" fill="#1b2433"><title>2026-05-06: 0 contributions</title></rect>
  <rect x="744" y="176" width="12" height="12" rx="3" fill="#1b2433"><title>2026-05-07: 0 contributions</title></rect>
  <rect x="744" y="192" width="12" height="12" rx="3" fill="#1b2433"><title>2026-05-08: 0 contributions</title></rect>
  <rect x="744" y="208" width="12" height="12" rx="3" fill="#1b2433"><title>2026-05-09: 0 contributions</title></rect>
  <rect x="760" y="112" width="12" height="12" rx="3" fill="#1b2433"><title>2026-05-10: 0 contributions</title></rect>
  <rect x="760" y="128" width="12" height="12" rx="3" fill="#1b2433"><title>2026-05-11: 0 contributions</title></rect>
  <rect x="760" y="144" width="12" height="12" rx="3" fill="#1b2433"><title>2026-05-12: 0 contributions</title></rect>
  <rect x="760" y="160" width="12" height="12" rx="3" fill="#1b2433"><title>2026-05-13: 0 contributions</title></rect>
  <rect x="760" y="176" width="12" height="12" rx="3" fill="#1b2433"><title>2026-05-14: 0 contributions</title></rect>
  <rect x="760" y="192" width="12" height="12" rx="3" fill="#1b2433"><title>2026-05-15: 0 contributions</title></rect>
  <rect x="760" y="208" width="12" height="12" rx="3" fill="#1b2433"><title>2026-05-16: 0 contributions</title></rect>
  <rect x="776" y="112" width="12" height="12" rx="3" fill="#1b2433"><title>2026-05-17: 0 contributions</title></rect>
  <rect x="776" y="128" width="12" height="12" rx="3" fill="#1b2433"><title>2026-05-18: 0 contributions</title></rect>
  <rect x="776" y="144" width="12" height="12" rx="3" fill="#1b2433"><title>2026-05-19: 0 contributions</title></rect>
  <rect x="776" y="160" width="12" height="12" rx="3" fill="#1b2433"><title>2026-05-20: 0 contributions</title></rect>
  <rect x="776" y="176" width="12" height="12" rx="3" fill="#1b2433"><title>2026-05-21: 0 contributions</title></rect>
  <rect x="776" y="192" width="12" height="12" rx="3" fill="#1b2433"><title>2026-05-22: 0 contributions</title></rect>
  <rect x="776" y="208" width="12" height="12" rx="3" fill="#1b2433"><title>2026-05-23: 0 contributions</title></rect>
  <rect x="792" y="112" width="12" height="12" rx="3" fill="#1b2433"><title>2026-05-24: 0 contributions</title></rect>
  <rect x="792" y="128" width="12" height="12" rx="3" fill="#1b2433"><title>2026-05-25: 0 contributions</title></rect>
  <rect x="792" y="144" width="12" height="12" rx="3" fill="#1b2433"><title>2026-05-26: 0 contributions</title></rect>
  <rect x="792" y="160" width="12" height="12" rx="3" fill="#5eead4"><title>2026-05-27: 15 contributions</title></rect>
  <rect x="792" y="176" width="12" height="12" rx="3" fill="#1b2433"><title>2026-05-28: 0 contributions</title></rect>
  <rect x="792" y="192" width="12" height="12" rx="3" fill="#1b2433"><title>2026-05-29: 0 contributions</title></rect>
  <rect x="792" y="208" width="12" height="12" rx="3" fill="#1b2433"><title>2026-05-30: 0 contributions</title></rect>
  <rect x="808" y="112" width="12" height="12" rx="3" fill="#1b2433"><title>2026-05-31: 0 contributions</title></rect>
  <rect x="808" y="128" width="12" height="12" rx="3" fill="#1b2433"><title>2026-06-01: 0 contributions</title></rect>
  <rect x="808" y="144" width="12" height="12" rx="3" fill="#1b2433"><title>2026-06-02: 0 contributions</title></rect>
  <rect x="808" y="160" width="12" height="12" rx="3" fill="#1b2433"><title>2026-06-03: 0 contributions</title></rect>
  <rect x="808" y="176" width="12" height="12" rx="3" fill="#1b2433"><title>2026-06-04: 0 contributions</title></rect>
  <rect x="808" y="192" width="12" height="12" rx="3" fill="#1b2433"><title>2026-06-05: 0 contributions</title></rect>
  <rect x="808" y="208" width="12" height="12" rx="3" fill="#1b2433"><title>2026-06-06: 0 contributions</title></rect>
  <rect x="824" y="112" width="12" height="12" rx="3" fill="#1b2433"><title>2026-06-07: 0 contributions</title></rect>
  <rect x="824" y="128" width="12" height="12" rx="3" fill="#1b2433"><title>2026-06-08: 0 contributions</title></rect>
  <rect x="824" y="144" width="12" height="12" rx="3" fill="#1b2433"><title>2026-06-09: 0 contributions</title></rect>
  <rect x="824" y="160" width="12" height="12" rx="3" fill="#1b2433"><title>2026-06-10: 0 contributions</title></rect>
  <rect x="824" y="176" width="12" height="12" rx="3" fill="#1b2433"><title>2026-06-11: 0 contributions</title></rect>
  <rect x="824" y="192" width="12" height="12" rx="3" fill="#1b2433"><title>2026-06-12: 0 contributions</title></rect>
  <rect x="824" y="208" width="12" height="12" rx="3" fill="#1b2433"><title>2026-06-13: 0 contributions</title></rect>
  <rect x="840" y="112" width="12" height="12" rx="3" fill="#1b2433"><title>2026-06-14: 0 contributions</title></rect>
  <rect x="840" y="128" width="12" height="12" rx="3" fill="#1b2433"><title>2026-06-15: 0 contributions</title></rect>
  <rect x="840" y="144" width="12" height="12" rx="3" fill="#1b2433"><title>2026-06-16: 0 contributions</title></rect>
  <rect x="840" y="160" width="12" height="12" rx="3" fill="#1b2433"><title>2026-06-17: 0 contributions</title></rect>
  <rect x="840" y="176" width="12" height="12" rx="3" fill="#1b2433"><title>2026-06-18: 0 contributions</title></rect>
  <rect x="840" y="192" width="12" height="12" rx="3" fill="#1b2433"><title>2026-06-19: 0 contributions</title></rect>
  <rect x="840" y="208" width="12" height="12" rx="3" fill="#1b2433"><title>2026-06-20: 0 contributions</title></rect>
  <rect x="856" y="112" width="12" height="12" rx="3" fill="#1b2433"><title>2026-06-21: 0 contributions</title></rect>
  <rect x="856" y="128" width="12" height="12" rx="3" fill="#1b2433"><title>2026-06-22: 0 contributions</title></rect>
  <rect x="856" y="144" width="12" height="12" rx="3" fill="#1b2433"><title>2026-06-23: 0 contributions</title></rect>
  <rect x="856" y="160" width="12" height="12" rx="3" fill="#1b2433"><title>2026-06-24: 0 contributions</title></rect>
  <rect x="856" y="176" width="12" height="12" rx="3" fill="#1b2433"><title>2026-06-25: 0 contributions</title></rect>
  <rect x="856" y="192" width="12" height="12" rx="3" fill="#1b2433"><title>2026-06-26: 0 contributions</title></rect>
  <rect x="856" y="208" width="12" height="12" rx="3" fill="#1b2433"><title>2026-06-27: 0 contributions</title></rect>
  <rect x="872" y="112" width="12" height="12" rx="3" fill="#0b7285"><title>2026-06-28: 3 contributions</title></rect>
  <rect x="872" y="128" width="12" height="12" rx="3" fill="#1b2433"><title>2026-06-29: 0 contributions</title></rect>
  <rect x="872" y="144" width="12" height="12" rx="3" fill="#0b7285"><title>2026-06-30: 3 contributions</title></rect>
  <rect x="872" y="160" width="12" height="12" rx="3" fill="#1b2433"><title>2026-07-01: 0 contributions</title></rect>
  <rect x="872" y="176" width="12" height="12" rx="3" fill="#1b2433"><title>2026-07-02: 0 contributions</title></rect>
  <rect x="872" y="192" width="12" height="12" rx="3" fill="#12324a"><title>2026-07-03: 1 contribution</title></rect>
  <rect x="872" y="208" width="12" height="12" rx="3" fill="#1b2433"><title>2026-07-04: 0 contributions</title></rect>
  <rect x="888" y="112" width="12" height="12" rx="3" fill="#1b2433"><title>2026-07-05: 0 contributions</title></rect>
  <rect x="888" y="128" width="12" height="12" rx="3" fill="#12324a"><title>2026-07-06: 1 contribution</title></rect>
  <rect x="888" y="144" width="12" height="12" rx="3" fill="#1b2433"><title>2026-07-07: 0 contributions</title></rect>
  <rect x="888" y="160" width="12" height="12" rx="3" fill="#1b2433"><title>2026-07-08: 0 contributions</title></rect>
  <rect x="888" y="176" width="12" height="12" rx="3" fill="#1b2433"><title>2026-07-09: 0 contributions</title></rect>
  <rect x="888" y="192" width="12" height="12" rx="3" fill="#1b2433"><title>2026-07-10: 0 contributions</title></rect>
  <rect x="888" y="208" width="12" height="12" rx="3" fill="#1b2433"><title>2026-07-11: 0 contributions</title></rect>
  <rect x="904" y="112" width="12" height="12" rx="3" fill="#1b2433"><title>2026-07-12: 0 contributions</title></rect>
  <rect x="904" y="128" width="12" height="12" rx="3" fill="#1b2433"><title>2026-07-13: 0 contributions</title></rect>
  <rect x="904" y="144" width="12" height="12" rx="3" fill="#12324a"><title>2026-07-14: 1 contribution</title></rect>
  <rect x="904" y="160" width="12" height="12" rx="3" fill="#1b2433"><title>2026-07-15: 0 contributions</title></rect>
  <rect x="904" y="176" width="12" height="12" rx="3" fill="#1b2433"><title>2026-07-16: 0 contributions</title></rect>
  <rect x="904" y="192" width="12" height="12" rx="3" fill="#1b2433"><title>2026-07-17: 0 contributions</title></rect>
  <rect x="904" y="208" width="12" height="12" rx="3" fill="#1b2433"><title>2026-07-18: 0 contributions</title></rect>
  <rect x="920" y="112" width="12" height="12" rx="3" fill="#1b2433"><title>2026-07-19: 0 contributions</title></rect>
  <rect x="920" y="128" width="12" height="12" rx="3" fill="#1b2433"><title>2026-07-20: 0 contributions</title></rect>
  <rect x="920" y="144" width="12" height="12" rx="3" fill="#1b2433"><title>2026-07-21: 0 contributions</title></rect>
  <text x="32" y="247" class="label">Less</text>
  <rect x="67" y="237" width="12" height="12" rx="3" fill="#1b2433" />
  <rect x="86" y="237" width="12" height="12" rx="3" fill="#12324a" />
  <rect x="105" y="237" width="12" height="12" rx="3" fill="#0f4c5c" />
  <rect x="124" y="237" width="12" height="12" rx="3" fill="#0b7285" />
  <rect x="143" y="237" width="12" height="12" rx="3" fill="#14b8a6" />
  <rect x="162" y="237" width="12" height="12" rx="3" fill="#5eead4" />
  <text x="187" y="247" class="label">More</text>
  <text x="760" y="247" class="label">Longest streak: 2 days</text>
  <rect x="880" y="237" width="88" height="2" rx="1" fill="url(#accent)" opacity=".75" />
</svg>
