<?xml version="1.0" encoding="UTF-8"?>
<svg xmlns="http://www.w3.org/2000/svg" width="900" height="180" viewBox="0 0 900 180" role="img" aria-labelledby="title desc">
  <title id="title">Pay4att's GitHub daily activity</title>
  <desc id="desc">37 contributions across 8 active days in the last year.</desc>
  <defs>
    <style>
      text { font-family: ui-sans-serif, -apple-system, BlinkMacSystemFont, "Segoe UI", sans-serif; }
      .title { fill: #1f2328; font-size: 14px; }
      .label { fill: #57606a; font-size: 11px; }
      .level-0 { fill: #ebedf0; }
      .level-1 { fill: #9be9a8; }
      .level-2 { fill: #40c463; }
      .level-3 { fill: #30a14e; }
      .level-4 { fill: #216e39; }
      @media (prefers-color-scheme: dark) {
        .title { fill: #e6edf3; }
        .label { fill: #8c959f; }
        .level-0 { fill: #161b22; }
        .level-1 { fill: #0e4429; }
        .level-2 { fill: #006d32; }
        .level-3 { fill: #26a641; }
        .level-4 { fill: #39d353; }
      }
    </style>
  </defs>
  <text x="78" y="22" class="title">37 contributions in the last year</text>
  <text x="78" y="48" class="label">Jul</text>
  <text x="106" y="48" class="label">Aug</text>
  <text x="176" y="48" class="label">Sep</text>
  <text x="232" y="48" class="label">Oct</text>
  <text x="288" y="48" class="label">Nov</text>
  <text x="358" y="48" class="label">Dec</text>
  <text x="414" y="48" class="label">Jan</text>
  <text x="470" y="48" class="label">Feb</text>
  <text x="526" y="48" class="label">Mar</text>
  <text x="596" y="48" class="label">Apr</text>
  <text x="652" y="48" class="label">May</text>
  <text x="722" y="48" class="label">Jun</text>
  <text x="778" y="48" class="label">Jul</text>
  <text x="38" y="81" class="label">Mon</text>
  <text x="38" y="109" class="label">Wed</text>
  <text x="38" y="137" class="label">Fri</text>
  <rect x="78" y="58" width="11" height="11" rx="2" class="level-0"><title>2025-07-20: 0 contributions</title></rect>
  <rect x="78" y="72" width="11" height="11" rx="2" class="level-0"><title>2025-07-21: 0 contributions</title></rect>
  <rect x="78" y="86" width="11" height="11" rx="2" class="level-0"><title>2025-07-22: 0 contributions</title></rect>
  <rect x="78" y="100" width="11" height="11" rx="2" class="level-0"><title>2025-07-23: 0 contributions</title></rect>
  <rect x="78" y="114" width="11" height="11" rx="2" class="level-0"><title>2025-07-24: 0 contributions</title></rect>
  <rect x="78" y="128" width="11" height="11" rx="2" class="level-0"><title>2025-07-25: 0 contributions</title></rect>
  <rect x="78" y="142" width="11" height="11" rx="2" class="level-0"><title>2025-07-26: 0 contributions</title></rect>
  <rect x="92" y="58" width="11" height="11" rx="2" class="level-0"><title>2025-07-27: 0 contributions</title></rect>
  <rect x="92" y="72" width="11" height="11" rx="2" class="level-0"><title>2025-07-28: 0 contributions</title></rect>
  <rect x="92" y="86" width="11" height="11" rx="2" class="level-0"><title>2025-07-29: 0 contributions</title></rect>
  <rect x="92" y="100" width="11" height="11" rx="2" class="level-0"><title>2025-07-30: 0 contributions</title></rect>
  <rect x="92" y="114" width="11" height="11" rx="2" class="level-0"><title>2025-07-31: 0 contributions</title></rect>
  <rect x="92" y="128" width="11" height="11" rx="2" class="level-0"><title>2025-08-01: 0 contributions</title></rect>
  <rect x="92" y="142" width="11" height="11" rx="2" class="level-0"><title>2025-08-02: 0 contributions</title></rect>
  <rect x="106" y="58" width="11" height="11" rx="2" class="level-0"><title>2025-08-03: 0 contributions</title></rect>
  <rect x="106" y="72" width="11" height="11" rx="2" class="level-0"><title>2025-08-04: 0 contributions</title></rect>
  <rect x="106" y="86" width="11" height="11" rx="2" class="level-0"><title>2025-08-05: 0 contributions</title></rect>
  <rect x="106" y="100" width="11" height="11" rx="2" class="level-0"><title>2025-08-06: 0 contributions</title></rect>
  <rect x="106" y="114" width="11" height="11" rx="2" class="level-0"><title>2025-08-07: 0 contributions</title></rect>
  <rect x="106" y="128" width="11" height="11" rx="2" class="level-0"><title>2025-08-08: 0 contributions</title></rect>
  <rect x="106" y="142" width="11" height="11" rx="2" class="level-0"><title>2025-08-09: 0 contributions</title></rect>
  <rect x="120" y="58" width="11" height="11" rx="2" class="level-0"><title>2025-08-10: 0 contributions</title></rect>
  <rect x="120" y="72" width="11" height="11" rx="2" class="level-0"><title>2025-08-11: 0 contributions</title></rect>
  <rect x="120" y="86" width="11" height="11" rx="2" class="level-0"><title>2025-08-12: 0 contributions</title></rect>
  <rect x="120" y="100" width="11" height="11" rx="2" class="level-0"><title>2025-08-13: 0 contributions</title></rect>
  <rect x="120" y="114" width="11" height="11" rx="2" class="level-0"><title>2025-08-14: 0 contributions</title></rect>
  <rect x="120" y="128" width="11" height="11" rx="2" class="level-0"><title>2025-08-15: 0 contributions</title></rect>
  <rect x="120" y="142" width="11" height="11" rx="2" class="level-0"><title>2025-08-16: 0 contributions</title></rect>
  <rect x="134" y="58" width="11" height="11" rx="2" class="level-0"><title>2025-08-17: 0 contributions</title></rect>
  <rect x="134" y="72" width="11" height="11" rx="2" class="level-0"><title>2025-08-18: 0 contributions</title></rect>
  <rect x="134" y="86" width="11" height="11" rx="2" class="level-0"><title>2025-08-19: 0 contributions</title></rect>
  <rect x="134" y="100" width="11" height="11" rx="2" class="level-0"><title>2025-08-20: 0 contributions</title></rect>
  <rect x="134" y="114" width="11" height="11" rx="2" class="level-0"><title>2025-08-21: 0 contributions</title></rect>
  <rect x="134" y="128" width="11" height="11" rx="2" class="level-0"><title>2025-08-22: 0 contributions</title></rect>
  <rect x="134" y="142" width="11" height="11" rx="2" class="level-0"><title>2025-08-23: 0 contributions</title></rect>
  <rect x="148" y="58" width="11" height="11" rx="2" class="level-0"><title>2025-08-24: 0 contributions</title></rect>
  <rect x="148" y="72" width="11" height="11" rx="2" class="level-0"><title>2025-08-25: 0 contributions</title></rect>
  <rect x="148" y="86" width="11" height="11" rx="2" class="level-0"><title>2025-08-26: 0 contributions</title></rect>
  <rect x="148" y="100" width="11" height="11" rx="2" class="level-0"><title>2025-08-27: 0 contributions</title></rect>
  <rect x="148" y="114" width="11" height="11" rx="2" class="level-0"><title>2025-08-28: 0 contributions</title></rect>
  <rect x="148" y="128" width="11" height="11" rx="2" class="level-0"><title>2025-08-29: 0 contributions</title></rect>
  <rect x="148" y="142" width="11" height="11" rx="2" class="level-0"><title>2025-08-30: 0 contributions</title></rect>
  <rect x="162" y="58" width="11" height="11" rx="2" class="level-0"><title>2025-08-31: 0 contributions</title></rect>
  <rect x="162" y="72" width="11" height="11" rx="2" class="level-0"><title>2025-09-01: 0 contributions</title></rect>
  <rect x="162" y="86" width="11" height="11" rx="2" class="level-0"><title>2025-09-02: 0 contributions</title></rect>
  <rect x="162" y="100" width="11" height="11" rx="2" class="level-0"><title>2025-09-03: 0 contributions</title></rect>
  <rect x="162" y="114" width="11" height="11" rx="2" class="level-0"><title>2025-09-04: 0 contributions</title></rect>
  <rect x="162" y="128" width="11" height="11" rx="2" class="level-0"><title>2025-09-05: 0 contributions</title></rect>
  <rect x="162" y="142" width="11" height="11" rx="2" class="level-0"><title>2025-09-06: 0 contributions</title></rect>
  <rect x="176" y="58" width="11" height="11" rx="2" class="level-0"><title>2025-09-07: 0 contributions</title></rect>
  <rect x="176" y="72" width="11" height="11" rx="2" class="level-0"><title>2025-09-08: 0 contributions</title></rect>
  <rect x="176" y="86" width="11" height="11" rx="2" class="level-0"><title>2025-09-09: 0 contributions</title></rect>
  <rect x="176" y="100" width="11" height="11" rx="2" class="level-0"><title>2025-09-10: 0 contributions</title></rect>
  <rect x="176" y="114" width="11" height="11" rx="2" class="level-0"><title>2025-09-11: 0 contributions</title></rect>
  <rect x="176" y="128" width="11" height="11" rx="2" class="level-0"><title>2025-09-12: 0 contributions</title></rect>
  <rect x="176" y="142" width="11" height="11" rx="2" class="level-0"><title>2025-09-13: 0 contributions</title></rect>
  <rect x="190" y="58" width="11" height="11" rx="2" class="level-0"><title>2025-09-14: 0 contributions</title></rect>
  <rect x="190" y="72" width="11" height="11" rx="2" class="level-0"><title>2025-09-15: 0 contributions</title></rect>
  <rect x="190" y="86" width="11" height="11" rx="2" class="level-0"><title>2025-09-16: 0 contributions</title></rect>
  <rect x="190" y="100" width="11" height="11" rx="2" class="level-0"><title>2025-09-17: 0 contributions</title></rect>
  <rect x="190" y="114" width="11" height="11" rx="2" class="level-0"><title>2025-09-18: 0 contributions</title></rect>
  <rect x="190" y="128" width="11" height="11" rx="2" class="level-0"><title>2025-09-19: 0 contributions</title></rect>
  <rect x="190" y="142" width="11" height="11" rx="2" class="level-0"><title>2025-09-20: 0 contributions</title></rect>
  <rect x="204" y="58" width="11" height="11" rx="2" class="level-0"><title>2025-09-21: 0 contributions</title></rect>
  <rect x="204" y="72" width="11" height="11" rx="2" class="level-0"><title>2025-09-22: 0 contributions</title></rect>
  <rect x="204" y="86" width="11" height="11" rx="2" class="level-0"><title>2025-09-23: 0 contributions</title></rect>
  <rect x="204" y="100" width="11" height="11" rx="2" class="level-0"><title>2025-09-24: 0 contributions</title></rect>
  <rect x="204" y="114" width="11" height="11" rx="2" class="level-0"><title>2025-09-25: 0 contributions</title></rect>
  <rect x="204" y="128" width="11" height="11" rx="2" class="level-0"><title>2025-09-26: 0 contributions</title></rect>
  <rect x="204" y="142" width="11" height="11" rx="2" class="level-0"><title>2025-09-27: 0 contributions</title></rect>
  <rect x="218" y="58" width="11" height="11" rx="2" class="level-0"><title>2025-09-28: 0 contributions</title></rect>
  <rect x="218" y="72" width="11" height="11" rx="2" class="level-0"><title>2025-09-29: 0 contributions</title></rect>
  <rect x="218" y="86" width="11" height="11" rx="2" class="level-0"><title>2025-09-30: 0 contributions</title></rect>
  <rect x="218" y="100" width="11" height="11" rx="2" class="level-0"><title>2025-10-01: 0 contributions</title></rect>
  <rect x="218" y="114" width="11" height="11" rx="2" class="level-0"><title>2025-10-02: 0 contributions</title></rect>
  <rect x="218" y="128" width="11" height="11" rx="2" class="level-0"><title>2025-10-03: 0 contributions</title></rect>
  <rect x="218" y="142" width="11" height="11" rx="2" class="level-0"><title>2025-10-04: 0 contributions</title></rect>
  <rect x="232" y="58" width="11" height="11" rx="2" class="level-0"><title>2025-10-05: 0 contributions</title></rect>
  <rect x="232" y="72" width="11" height="11" rx="2" class="level-0"><title>2025-10-06: 0 contributions</title></rect>
  <rect x="232" y="86" width="11" height="11" rx="2" class="level-0"><title>2025-10-07: 0 contributions</title></rect>
  <rect x="232" y="100" width="11" height="11" rx="2" class="level-0"><title>2025-10-08: 0 contributions</title></rect>
  <rect x="232" y="114" width="11" height="11" rx="2" class="level-0"><title>2025-10-09: 0 contributions</title></rect>
  <rect x="232" y="128" width="11" height="11" rx="2" class="level-0"><title>2025-10-10: 0 contributions</title></rect>
  <rect x="232" y="142" width="11" height="11" rx="2" class="level-0"><title>2025-10-11: 0 contributions</title></rect>
  <rect x="246" y="58" width="11" height="11" rx="2" class="level-0"><title>2025-10-12: 0 contributions</title></rect>
  <rect x="246" y="72" width="11" height="11" rx="2" class="level-0"><title>2025-10-13: 0 contributions</title></rect>
  <rect x="246" y="86" width="11" height="11" rx="2" class="level-0"><title>2025-10-14: 0 contributions</title></rect>
  <rect x="246" y="100" width="11" height="11" rx="2" class="level-0"><title>2025-10-15: 0 contributions</title></rect>
  <rect x="246" y="114" width="11" height="11" rx="2" class="level-0"><title>2025-10-16: 0 contributions</title></rect>
  <rect x="246" y="128" width="11" height="11" rx="2" class="level-0"><title>2025-10-17: 0 contributions</title></rect>
  <rect x="246" y="142" width="11" height="11" rx="2" class="level-0"><title>2025-10-18: 0 contributions</title></rect>
  <rect x="260" y="58" width="11" height="11" rx="2" class="level-0"><title>2025-10-19: 0 contributions</title></rect>
  <rect x="260" y="72" width="11" height="11" rx="2" class="level-0"><title>2025-10-20: 0 contributions</title></rect>
  <rect x="260" y="86" width="11" height="11" rx="2" class="level-0"><title>2025-10-21: 0 contributions</title></rect>
  <rect x="260" y="100" width="11" height="11" rx="2" class="level-0"><title>2025-10-22: 0 contributions</title></rect>
  <rect x="260" y="114" width="11" height="11" rx="2" class="level-0"><title>2025-10-23: 0 contributions</title></rect>
  <rect x="260" y="128" width="11" height="11" rx="2" class="level-0"><title>2025-10-24: 0 contributions</title></rect>
  <rect x="260" y="142" width="11" height="11" rx="2" class="level-0"><title>2025-10-25: 0 contributions</title></rect>
  <rect x="274" y="58" width="11" height="11" rx="2" class="level-0"><title>2025-10-26: 0 contributions</title></rect>
  <rect x="274" y="72" width="11" height="11" rx="2" class="level-0"><title>2025-10-27: 0 contributions</title></rect>
  <rect x="274" y="86" width="11" height="11" rx="2" class="level-0"><title>2025-10-28: 0 contributions</title></rect>
  <rect x="274" y="100" width="11" height="11" rx="2" class="level-0"><title>2025-10-29: 0 contributions</title></rect>
  <rect x="274" y="114" width="11" height="11" rx="2" class="level-0"><title>2025-10-30: 0 contributions</title></rect>
  <rect x="274" y="128" width="11" height="11" rx="2" class="level-0"><title>2025-10-31: 0 contributions</title></rect>
  <rect x="274" y="142" width="11" height="11" rx="2" class="level-0"><title>2025-11-01: 0 contributions</title></rect>
  <rect x="288" y="58" width="11" height="11" rx="2" class="level-0"><title>2025-11-02: 0 contributions</title></rect>
  <rect x="288" y="72" width="11" height="11" rx="2" class="level-0"><title>2025-11-03: 0 contributions</title></rect>
  <rect x="288" y="86" width="11" height="11" rx="2" class="level-0"><title>2025-11-04: 0 contributions</title></rect>
  <rect x="288" y="100" width="11" height="11" rx="2" class="level-0"><title>2025-11-05: 0 contributions</title></rect>
  <rect x="288" y="114" width="11" height="11" rx="2" class="level-0"><title>2025-11-06: 0 contributions</title></rect>
  <rect x="288" y="128" width="11" height="11" rx="2" class="level-0"><title>2025-11-07: 0 contributions</title></rect>
  <rect x="288" y="142" width="11" height="11" rx="2" class="level-0"><title>2025-11-08: 0 contributions</title></rect>
  <rect x="302" y="58" width="11" height="11" rx="2" class="level-0"><title>2025-11-09: 0 contributions</title></rect>
  <rect x="302" y="72" width="11" height="11" rx="2" class="level-0"><title>2025-11-10: 0 contributions</title></rect>
  <rect x="302" y="86" width="11" height="11" rx="2" class="level-0"><title>2025-11-11: 0 contributions</title></rect>
  <rect x="302" y="100" width="11" height="11" rx="2" class="level-0"><title>2025-11-12: 0 contributions</title></rect>
  <rect x="302" y="114" width="11" height="11" rx="2" class="level-0"><title>2025-11-13: 0 contributions</title></rect>
  <rect x="302" y="128" width="11" height="11" rx="2" class="level-0"><title>2025-11-14: 0 contributions</title></rect>
  <rect x="302" y="142" width="11" height="11" rx="2" class="level-0"><title>2025-11-15: 0 contributions</title></rect>
  <rect x="316" y="58" width="11" height="11" rx="2" class="level-0"><title>2025-11-16: 0 contributions</title></rect>
  <rect x="316" y="72" width="11" height="11" rx="2" class="level-0"><title>2025-11-17: 0 contributions</title></rect>
  <rect x="316" y="86" width="11" height="11" rx="2" class="level-0"><title>2025-11-18: 0 contributions</title></rect>
  <rect x="316" y="100" width="11" height="11" rx="2" class="level-0"><title>2025-11-19: 0 contributions</title></rect>
  <rect x="316" y="114" width="11" height="11" rx="2" class="level-0"><title>2025-11-20: 0 contributions</title></rect>
  <rect x="316" y="128" width="11" height="11" rx="2" class="level-0"><title>2025-11-21: 0 contributions</title></rect>
  <rect x="316" y="142" width="11" height="11" rx="2" class="level-0"><title>2025-11-22: 0 contributions</title></rect>
  <rect x="330" y="58" width="11" height="11" rx="2" class="level-0"><title>2025-11-23: 0 contributions</title></rect>
  <rect x="330" y="72" width="11" height="11" rx="2" class="level-0"><title>2025-11-24: 0 contributions</title></rect>
  <rect x="330" y="86" width="11" height="11" rx="2" class="level-0"><title>2025-11-25: 0 contributions</title></rect>
  <rect x="330" y="100" width="11" height="11" rx="2" class="level-0"><title>2025-11-26: 0 contributions</title></rect>
  <rect x="330" y="114" width="11" height="11" rx="2" class="level-0"><title>2025-11-27: 0 contributions</title></rect>
  <rect x="330" y="128" width="11" height="11" rx="2" class="level-0"><title>2025-11-28: 0 contributions</title></rect>
  <rect x="330" y="142" width="11" height="11" rx="2" class="level-0"><title>2025-11-29: 0 contributions</title></rect>
  <rect x="344" y="58" width="11" height="11" rx="2" class="level-0"><title>2025-11-30: 0 contributions</title></rect>
  <rect x="344" y="72" width="11" height="11" rx="2" class="level-0"><title>2025-12-01: 0 contributions</title></rect>
  <rect x="344" y="86" width="11" height="11" rx="2" class="level-0"><title>2025-12-02: 0 contributions</title></rect>
  <rect x="344" y="100" width="11" height="11" rx="2" class="level-0"><title>2025-12-03: 0 contributions</title></rect>
  <rect x="344" y="114" width="11" height="11" rx="2" class="level-0"><title>2025-12-04: 0 contributions</title></rect>
  <rect x="344" y="128" width="11" height="11" rx="2" class="level-0"><title>2025-12-05: 0 contributions</title></rect>
  <rect x="344" y="142" width="11" height="11" rx="2" class="level-0"><title>2025-12-06: 0 contributions</title></rect>
  <rect x="358" y="58" width="11" height="11" rx="2" class="level-0"><title>2025-12-07: 0 contributions</title></rect>
  <rect x="358" y="72" width="11" height="11" rx="2" class="level-0"><title>2025-12-08: 0 contributions</title></rect>
  <rect x="358" y="86" width="11" height="11" rx="2" class="level-0"><title>2025-12-09: 0 contributions</title></rect>
  <rect x="358" y="100" width="11" height="11" rx="2" class="level-0"><title>2025-12-10: 0 contributions</title></rect>
  <rect x="358" y="114" width="11" height="11" rx="2" class="level-0"><title>2025-12-11: 0 contributions</title></rect>
  <rect x="358" y="128" width="11" height="11" rx="2" class="level-0"><title>2025-12-12: 0 contributions</title></rect>
  <rect x="358" y="142" width="11" height="11" rx="2" class="level-0"><title>2025-12-13: 0 contributions</title></rect>
  <rect x="372" y="58" width="11" height="11" rx="2" class="level-0"><title>2025-12-14: 0 contributions</title></rect>
  <rect x="372" y="72" width="11" height="11" rx="2" class="level-0"><title>2025-12-15: 0 contributions</title></rect>
  <rect x="372" y="86" width="11" height="11" rx="2" class="level-0"><title>2025-12-16: 0 contributions</title></rect>
  <rect x="372" y="100" width="11" height="11" rx="2" class="level-0"><title>2025-12-17: 0 contributions</title></rect>
  <rect x="372" y="114" width="11" height="11" rx="2" class="level-0"><title>2025-12-18: 0 contributions</title></rect>
  <rect x="372" y="128" width="11" height="11" rx="2" class="level-4"><title>2025-12-19: 9 contributions</title></rect>
  <rect x="372" y="142" width="11" height="11" rx="2" class="level-4"><title>2025-12-20: 4 contributions</title></rect>
  <rect x="386" y="58" width="11" height="11" rx="2" class="level-0"><title>2025-12-21: 0 contributions</title></rect>
  <rect x="386" y="72" width="11" height="11" rx="2" class="level-0"><title>2025-12-22: 0 contributions</title></rect>
  <rect x="386" y="86" width="11" height="11" rx="2" class="level-0"><title>2025-12-23: 0 contributions</title></rect>
  <rect x="386" y="100" width="11" height="11" rx="2" class="level-0"><title>2025-12-24: 0 contributions</title></rect>
  <rect x="386" y="114" width="11" height="11" rx="2" class="level-0"><title>2025-12-25: 0 contributions</title></rect>
  <rect x="386" y="128" width="11" height="11" rx="2" class="level-0"><title>2025-12-26: 0 contributions</title></rect>
  <rect x="386" y="142" width="11" height="11" rx="2" class="level-0"><title>2025-12-27: 0 contributions</title></rect>
  <rect x="400" y="58" width="11" height="11" rx="2" class="level-0"><title>2025-12-28: 0 contributions</title></rect>
  <rect x="400" y="72" width="11" height="11" rx="2" class="level-0"><title>2025-12-29: 0 contributions</title></rect>
  <rect x="400" y="86" width="11" height="11" rx="2" class="level-0"><title>2025-12-30: 0 contributions</title></rect>
  <rect x="400" y="100" width="11" height="11" rx="2" class="level-0"><title>2025-12-31: 0 contributions</title></rect>
  <rect x="400" y="114" width="11" height="11" rx="2" class="level-0"><title>2026-01-01: 0 contributions</title></rect>
  <rect x="400" y="128" width="11" height="11" rx="2" class="level-0"><title>2026-01-02: 0 contributions</title></rect>
  <rect x="400" y="142" width="11" height="11" rx="2" class="level-0"><title>2026-01-03: 0 contributions</title></rect>
  <rect x="414" y="58" width="11" height="11" rx="2" class="level-0"><title>2026-01-04: 0 contributions</title></rect>
  <rect x="414" y="72" width="11" height="11" rx="2" class="level-0"><title>2026-01-05: 0 contributions</title></rect>
  <rect x="414" y="86" width="11" height="11" rx="2" class="level-0"><title>2026-01-06: 0 contributions</title></rect>
  <rect x="414" y="100" width="11" height="11" rx="2" class="level-0"><title>2026-01-07: 0 contributions</title></rect>
  <rect x="414" y="114" width="11" height="11" rx="2" class="level-0"><title>2026-01-08: 0 contributions</title></rect>
  <rect x="414" y="128" width="11" height="11" rx="2" class="level-0"><title>2026-01-09: 0 contributions</title></rect>
  <rect x="414" y="142" width="11" height="11" rx="2" class="level-0"><title>2026-01-10: 0 contributions</title></rect>
  <rect x="428" y="58" width="11" height="11" rx="2" class="level-0"><title>2026-01-11: 0 contributions</title></rect>
  <rect x="428" y="72" width="11" height="11" rx="2" class="level-0"><title>2026-01-12: 0 contributions</title></rect>
  <rect x="428" y="86" width="11" height="11" rx="2" class="level-0"><title>2026-01-13: 0 contributions</title></rect>
  <rect x="428" y="100" width="11" height="11" rx="2" class="level-0"><title>2026-01-14: 0 contributions</title></rect>
  <rect x="428" y="114" width="11" height="11" rx="2" class="level-0"><title>2026-01-15: 0 contributions</title></rect>
  <rect x="428" y="128" width="11" height="11" rx="2" class="level-0"><title>2026-01-16: 0 contributions</title></rect>
  <rect x="428" y="142" width="11" height="11" rx="2" class="level-0"><title>2026-01-17: 0 contributions</title></rect>
  <rect x="442" y="58" width="11" height="11" rx="2" class="level-0"><title>2026-01-18: 0 contributions</title></rect>
  <rect x="442" y="72" width="11" height="11" rx="2" class="level-0"><title>2026-01-19: 0 contributions</title></rect>
  <rect x="442" y="86" width="11" height="11" rx="2" class="level-0"><title>2026-01-20: 0 contributions</title></rect>
  <rect x="442" y="100" width="11" height="11" rx="2" class="level-0"><title>2026-01-21: 0 contributions</title></rect>
  <rect x="442" y="114" width="11" height="11" rx="2" class="level-0"><title>2026-01-22: 0 contributions</title></rect>
  <rect x="442" y="128" width="11" height="11" rx="2" class="level-0"><title>2026-01-23: 0 contributions</title></rect>
  <rect x="442" y="142" width="11" height="11" rx="2" class="level-0"><title>2026-01-24: 0 contributions</title></rect>
  <rect x="456" y="58" width="11" height="11" rx="2" class="level-0"><title>2026-01-25: 0 contributions</title></rect>
  <rect x="456" y="72" width="11" height="11" rx="2" class="level-0"><title>2026-01-26: 0 contributions</title></rect>
  <rect x="456" y="86" width="11" height="11" rx="2" class="level-0"><title>2026-01-27: 0 contributions</title></rect>
  <rect x="456" y="100" width="11" height="11" rx="2" class="level-0"><title>2026-01-28: 0 contributions</title></rect>
  <rect x="456" y="114" width="11" height="11" rx="2" class="level-0"><title>2026-01-29: 0 contributions</title></rect>
  <rect x="456" y="128" width="11" height="11" rx="2" class="level-0"><title>2026-01-30: 0 contributions</title></rect>
  <rect x="456" y="142" width="11" height="11" rx="2" class="level-0"><title>2026-01-31: 0 contributions</title></rect>
  <rect x="470" y="58" width="11" height="11" rx="2" class="level-0"><title>2026-02-01: 0 contributions</title></rect>
  <rect x="470" y="72" width="11" height="11" rx="2" class="level-0"><title>2026-02-02: 0 contributions</title></rect>
  <rect x="470" y="86" width="11" height="11" rx="2" class="level-0"><title>2026-02-03: 0 contributions</title></rect>
  <rect x="470" y="100" width="11" height="11" rx="2" class="level-0"><title>2026-02-04: 0 contributions</title></rect>
  <rect x="470" y="114" width="11" height="11" rx="2" class="level-0"><title>2026-02-05: 0 contributions</title></rect>
  <rect x="470" y="128" width="11" height="11" rx="2" class="level-0"><title>2026-02-06: 0 contributions</title></rect>
  <rect x="470" y="142" width="11" height="11" rx="2" class="level-0"><title>2026-02-07: 0 contributions</title></rect>
  <rect x="484" y="58" width="11" height="11" rx="2" class="level-0"><title>2026-02-08: 0 contributions</title></rect>
  <rect x="484" y="72" width="11" height="11" rx="2" class="level-0"><title>2026-02-09: 0 contributions</title></rect>
  <rect x="484" y="86" width="11" height="11" rx="2" class="level-0"><title>2026-02-10: 0 contributions</title></rect>
  <rect x="484" y="100" width="11" height="11" rx="2" class="level-0"><title>2026-02-11: 0 contributions</title></rect>
  <rect x="484" y="114" width="11" height="11" rx="2" class="level-0"><title>2026-02-12: 0 contributions</title></rect>
  <rect x="484" y="128" width="11" height="11" rx="2" class="level-0"><title>2026-02-13: 0 contributions</title></rect>
  <rect x="484" y="142" width="11" height="11" rx="2" class="level-0"><title>2026-02-14: 0 contributions</title></rect>
  <rect x="498" y="58" width="11" height="11" rx="2" class="level-0"><title>2026-02-15: 0 contributions</title></rect>
  <rect x="498" y="72" width="11" height="11" rx="2" class="level-0"><title>2026-02-16: 0 contributions</title></rect>
  <rect x="498" y="86" width="11" height="11" rx="2" class="level-0"><title>2026-02-17: 0 contributions</title></rect>
  <rect x="498" y="100" width="11" height="11" rx="2" class="level-0"><title>2026-02-18: 0 contributions</title></rect>
  <rect x="498" y="114" width="11" height="11" rx="2" class="level-0"><title>2026-02-19: 0 contributions</title></rect>
  <rect x="498" y="128" width="11" height="11" rx="2" class="level-0"><title>2026-02-20: 0 contributions</title></rect>
  <rect x="498" y="142" width="11" height="11" rx="2" class="level-0"><title>2026-02-21: 0 contributions</title></rect>
  <rect x="512" y="58" width="11" height="11" rx="2" class="level-0"><title>2026-02-22: 0 contributions</title></rect>
  <rect x="512" y="72" width="11" height="11" rx="2" class="level-0"><title>2026-02-23: 0 contributions</title></rect>
  <rect x="512" y="86" width="11" height="11" rx="2" class="level-0"><title>2026-02-24: 0 contributions</title></rect>
  <rect x="512" y="100" width="11" height="11" rx="2" class="level-0"><title>2026-02-25: 0 contributions</title></rect>
  <rect x="512" y="114" width="11" height="11" rx="2" class="level-0"><title>2026-02-26: 0 contributions</title></rect>
  <rect x="512" y="128" width="11" height="11" rx="2" class="level-0"><title>2026-02-27: 0 contributions</title></rect>
  <rect x="512" y="142" width="11" height="11" rx="2" class="level-0"><title>2026-02-28: 0 contributions</title></rect>
  <rect x="526" y="58" width="11" height="11" rx="2" class="level-0"><title>2026-03-01: 0 contributions</title></rect>
  <rect x="526" y="72" width="11" height="11" rx="2" class="level-0"><title>2026-03-02: 0 contributions</title></rect>
  <rect x="526" y="86" width="11" height="11" rx="2" class="level-0"><title>2026-03-03: 0 contributions</title></rect>
  <rect x="526" y="100" width="11" height="11" rx="2" class="level-0"><title>2026-03-04: 0 contributions</title></rect>
  <rect x="526" y="114" width="11" height="11" rx="2" class="level-0"><title>2026-03-05: 0 contributions</title></rect>
  <rect x="526" y="128" width="11" height="11" rx="2" class="level-0"><title>2026-03-06: 0 contributions</title></rect>
  <rect x="526" y="142" width="11" height="11" rx="2" class="level-0"><title>2026-03-07: 0 contributions</title></rect>
  <rect x="540" y="58" width="11" height="11" rx="2" class="level-0"><title>2026-03-08: 0 contributions</title></rect>
  <rect x="540" y="72" width="11" height="11" rx="2" class="level-0"><title>2026-03-09: 0 contributions</title></rect>
  <rect x="540" y="86" width="11" height="11" rx="2" class="level-0"><title>2026-03-10: 0 contributions</title></rect>
  <rect x="540" y="100" width="11" height="11" rx="2" class="level-0"><title>2026-03-11: 0 contributions</title></rect>
  <rect x="540" y="114" width="11" height="11" rx="2" class="level-0"><title>2026-03-12: 0 contributions</title></rect>
  <rect x="540" y="128" width="11" height="11" rx="2" class="level-0"><title>2026-03-13: 0 contributions</title></rect>
  <rect x="540" y="142" width="11" height="11" rx="2" class="level-0"><title>2026-03-14: 0 contributions</title></rect>
  <rect x="554" y="58" width="11" height="11" rx="2" class="level-0"><title>2026-03-15: 0 contributions</title></rect>
  <rect x="554" y="72" width="11" height="11" rx="2" class="level-0"><title>2026-03-16: 0 contributions</title></rect>
  <rect x="554" y="86" width="11" height="11" rx="2" class="level-0"><title>2026-03-17: 0 contributions</title></rect>
  <rect x="554" y="100" width="11" height="11" rx="2" class="level-0"><title>2026-03-18: 0 contributions</title></rect>
  <rect x="554" y="114" width="11" height="11" rx="2" class="level-0"><title>2026-03-19: 0 contributions</title></rect>
  <rect x="554" y="128" width="11" height="11" rx="2" class="level-0"><title>2026-03-20: 0 contributions</title></rect>
  <rect x="554" y="142" width="11" height="11" rx="2" class="level-0"><title>2026-03-21: 0 contributions</title></rect>
  <rect x="568" y="58" width="11" height="11" rx="2" class="level-0"><title>2026-03-22: 0 contributions</title></rect>
  <rect x="568" y="72" width="11" height="11" rx="2" class="level-0"><title>2026-03-23: 0 contributions</title></rect>
  <rect x="568" y="86" width="11" height="11" rx="2" class="level-0"><title>2026-03-24: 0 contributions</title></rect>
  <rect x="568" y="100" width="11" height="11" rx="2" class="level-0"><title>2026-03-25: 0 contributions</title></rect>
  <rect x="568" y="114" width="11" height="11" rx="2" class="level-0"><title>2026-03-26: 0 contributions</title></rect>
  <rect x="568" y="128" width="11" height="11" rx="2" class="level-0"><title>2026-03-27: 0 contributions</title></rect>
  <rect x="568" y="142" width="11" height="11" rx="2" class="level-0"><title>2026-03-28: 0 contributions</title></rect>
  <rect x="582" y="58" width="11" height="11" rx="2" class="level-0"><title>2026-03-29: 0 contributions</title></rect>
  <rect x="582" y="72" width="11" height="11" rx="2" class="level-0"><title>2026-03-30: 0 contributions</title></rect>
  <rect x="582" y="86" width="11" height="11" rx="2" class="level-0"><title>2026-03-31: 0 contributions</title></rect>
  <rect x="582" y="100" width="11" height="11" rx="2" class="level-0"><title>2026-04-01: 0 contributions</title></rect>
  <rect x="582" y="114" width="11" height="11" rx="2" class="level-0"><title>2026-04-02: 0 contributions</title></rect>
  <rect x="582" y="128" width="11" height="11" rx="2" class="level-0"><title>2026-04-03: 0 contributions</title></rect>
  <rect x="582" y="142" width="11" height="11" rx="2" class="level-0"><title>2026-04-04: 0 contributions</title></rect>
  <rect x="596" y="58" width="11" height="11" rx="2" class="level-0"><title>2026-04-05: 0 contributions</title></rect>
  <rect x="596" y="72" width="11" height="11" rx="2" class="level-0"><title>2026-04-06: 0 contributions</title></rect>
  <rect x="596" y="86" width="11" height="11" rx="2" class="level-0"><title>2026-04-07: 0 contributions</title></rect>
  <rect x="596" y="100" width="11" height="11" rx="2" class="level-0"><title>2026-04-08: 0 contributions</title></rect>
  <rect x="596" y="114" width="11" height="11" rx="2" class="level-0"><title>2026-04-09: 0 contributions</title></rect>
  <rect x="596" y="128" width="11" height="11" rx="2" class="level-0"><title>2026-04-10: 0 contributions</title></rect>
  <rect x="596" y="142" width="11" height="11" rx="2" class="level-0"><title>2026-04-11: 0 contributions</title></rect>
  <rect x="610" y="58" width="11" height="11" rx="2" class="level-0"><title>2026-04-12: 0 contributions</title></rect>
  <rect x="610" y="72" width="11" height="11" rx="2" class="level-0"><title>2026-04-13: 0 contributions</title></rect>
  <rect x="610" y="86" width="11" height="11" rx="2" class="level-0"><title>2026-04-14: 0 contributions</title></rect>
  <rect x="610" y="100" width="11" height="11" rx="2" class="level-0"><title>2026-04-15: 0 contributions</title></rect>
  <rect x="610" y="114" width="11" height="11" rx="2" class="level-0"><title>2026-04-16: 0 contributions</title></rect>
  <rect x="610" y="128" width="11" height="11" rx="2" class="level-0"><title>2026-04-17: 0 contributions</title></rect>
  <rect x="610" y="142" width="11" height="11" rx="2" class="level-0"><title>2026-04-18: 0 contributions</title></rect>
  <rect x="624" y="58" width="11" height="11" rx="2" class="level-0"><title>2026-04-19: 0 contributions</title></rect>
  <rect x="624" y="72" width="11" height="11" rx="2" class="level-0"><title>2026-04-20: 0 contributions</title></rect>
  <rect x="624" y="86" width="11" height="11" rx="2" class="level-0"><title>2026-04-21: 0 contributions</title></rect>
  <rect x="624" y="100" width="11" height="11" rx="2" class="level-0"><title>2026-04-22: 0 contributions</title></rect>
  <rect x="624" y="114" width="11" height="11" rx="2" class="level-0"><title>2026-04-23: 0 contributions</title></rect>
  <rect x="624" y="128" width="11" height="11" rx="2" class="level-0"><title>2026-04-24: 0 contributions</title></rect>
  <rect x="624" y="142" width="11" height="11" rx="2" class="level-0"><title>2026-04-25: 0 contributions</title></rect>
  <rect x="638" y="58" width="11" height="11" rx="2" class="level-0"><title>2026-04-26: 0 contributions</title></rect>
  <rect x="638" y="72" width="11" height="11" rx="2" class="level-0"><title>2026-04-27: 0 contributions</title></rect>
  <rect x="638" y="86" width="11" height="11" rx="2" class="level-0"><title>2026-04-28: 0 contributions</title></rect>
  <rect x="638" y="100" width="11" height="11" rx="2" class="level-0"><title>2026-04-29: 0 contributions</title></rect>
  <rect x="638" y="114" width="11" height="11" rx="2" class="level-0"><title>2026-04-30: 0 contributions</title></rect>
  <rect x="638" y="128" width="11" height="11" rx="2" class="level-0"><title>2026-05-01: 0 contributions</title></rect>
  <rect x="638" y="142" width="11" height="11" rx="2" class="level-0"><title>2026-05-02: 0 contributions</title></rect>
  <rect x="652" y="58" width="11" height="11" rx="2" class="level-0"><title>2026-05-03: 0 contributions</title></rect>
  <rect x="652" y="72" width="11" height="11" rx="2" class="level-0"><title>2026-05-04: 0 contributions</title></rect>
  <rect x="652" y="86" width="11" height="11" rx="2" class="level-0"><title>2026-05-05: 0 contributions</title></rect>
  <rect x="652" y="100" width="11" height="11" rx="2" class="level-0"><title>2026-05-06: 0 contributions</title></rect>
  <rect x="652" y="114" width="11" height="11" rx="2" class="level-0"><title>2026-05-07: 0 contributions</title></rect>
  <rect x="652" y="128" width="11" height="11" rx="2" class="level-0"><title>2026-05-08: 0 contributions</title></rect>
  <rect x="652" y="142" width="11" height="11" rx="2" class="level-0"><title>2026-05-09: 0 contributions</title></rect>
  <rect x="666" y="58" width="11" height="11" rx="2" class="level-0"><title>2026-05-10: 0 contributions</title></rect>
  <rect x="666" y="72" width="11" height="11" rx="2" class="level-0"><title>2026-05-11: 0 contributions</title></rect>
  <rect x="666" y="86" width="11" height="11" rx="2" class="level-0"><title>2026-05-12: 0 contributions</title></rect>
  <rect x="666" y="100" width="11" height="11" rx="2" class="level-0"><title>2026-05-13: 0 contributions</title></rect>
  <rect x="666" y="114" width="11" height="11" rx="2" class="level-0"><title>2026-05-14: 0 contributions</title></rect>
  <rect x="666" y="128" width="11" height="11" rx="2" class="level-0"><title>2026-05-15: 0 contributions</title></rect>
  <rect x="666" y="142" width="11" height="11" rx="2" class="level-0"><title>2026-05-16: 0 contributions</title></rect>
  <rect x="680" y="58" width="11" height="11" rx="2" class="level-0"><title>2026-05-17: 0 contributions</title></rect>
  <rect x="680" y="72" width="11" height="11" rx="2" class="level-0"><title>2026-05-18: 0 contributions</title></rect>
  <rect x="680" y="86" width="11" height="11" rx="2" class="level-0"><title>2026-05-19: 0 contributions</title></rect>
  <rect x="680" y="100" width="11" height="11" rx="2" class="level-0"><title>2026-05-20: 0 contributions</title></rect>
  <rect x="680" y="114" width="11" height="11" rx="2" class="level-0"><title>2026-05-21: 0 contributions</title></rect>
  <rect x="680" y="128" width="11" height="11" rx="2" class="level-0"><title>2026-05-22: 0 contributions</title></rect>
  <rect x="680" y="142" width="11" height="11" rx="2" class="level-0"><title>2026-05-23: 0 contributions</title></rect>
  <rect x="694" y="58" width="11" height="11" rx="2" class="level-0"><title>2026-05-24: 0 contributions</title></rect>
  <rect x="694" y="72" width="11" height="11" rx="2" class="level-0"><title>2026-05-25: 0 contributions</title></rect>
  <rect x="694" y="86" width="11" height="11" rx="2" class="level-0"><title>2026-05-26: 0 contributions</title></rect>
  <rect x="694" y="100" width="11" height="11" rx="2" class="level-4"><title>2026-05-27: 15 contributions</title></rect>
  <rect x="694" y="114" width="11" height="11" rx="2" class="level-0"><title>2026-05-28: 0 contributions</title></rect>
  <rect x="694" y="128" width="11" height="11" rx="2" class="level-0"><title>2026-05-29: 0 contributions</title></rect>
  <rect x="694" y="142" width="11" height="11" rx="2" class="level-0"><title>2026-05-30: 0 contributions</title></rect>
  <rect x="708" y="58" width="11" height="11" rx="2" class="level-0"><title>2026-05-31: 0 contributions</title></rect>
  <rect x="708" y="72" width="11" height="11" rx="2" class="level-0"><title>2026-06-01: 0 contributions</title></rect>
  <rect x="708" y="86" width="11" height="11" rx="2" class="level-0"><title>2026-06-02: 0 contributions</title></rect>
  <rect x="708" y="100" width="11" height="11" rx="2" class="level-0"><title>2026-06-03: 0 contributions</title></rect>
  <rect x="708" y="114" width="11" height="11" rx="2" class="level-0"><title>2026-06-04: 0 contributions</title></rect>
  <rect x="708" y="128" width="11" height="11" rx="2" class="level-0"><title>2026-06-05: 0 contributions</title></rect>
  <rect x="708" y="142" width="11" height="11" rx="2" class="level-0"><title>2026-06-06: 0 contributions</title></rect>
  <rect x="722" y="58" width="11" height="11" rx="2" class="level-0"><title>2026-06-07: 0 contributions</title></rect>
  <rect x="722" y="72" width="11" height="11" rx="2" class="level-0"><title>2026-06-08: 0 contributions</title></rect>
  <rect x="722" y="86" width="11" height="11" rx="2" class="level-0"><title>2026-06-09: 0 contributions</title></rect>
  <rect x="722" y="100" width="11" height="11" rx="2" class="level-0"><title>2026-06-10: 0 contributions</title></rect>
  <rect x="722" y="114" width="11" height="11" rx="2" class="level-0"><title>2026-06-11: 0 contributions</title></rect>
  <rect x="722" y="128" width="11" height="11" rx="2" class="level-0"><title>2026-06-12: 0 contributions</title></rect>
  <rect x="722" y="142" width="11" height="11" rx="2" class="level-0"><title>2026-06-13: 0 contributions</title></rect>
  <rect x="736" y="58" width="11" height="11" rx="2" class="level-0"><title>2026-06-14: 0 contributions</title></rect>
  <rect x="736" y="72" width="11" height="11" rx="2" class="level-0"><title>2026-06-15: 0 contributions</title></rect>
  <rect x="736" y="86" width="11" height="11" rx="2" class="level-0"><title>2026-06-16: 0 contributions</title></rect>
  <rect x="736" y="100" width="11" height="11" rx="2" class="level-0"><title>2026-06-17: 0 contributions</title></rect>
  <rect x="736" y="114" width="11" height="11" rx="2" class="level-0"><title>2026-06-18: 0 contributions</title></rect>
  <rect x="736" y="128" width="11" height="11" rx="2" class="level-0"><title>2026-06-19: 0 contributions</title></rect>
  <rect x="736" y="142" width="11" height="11" rx="2" class="level-0"><title>2026-06-20: 0 contributions</title></rect>
  <rect x="750" y="58" width="11" height="11" rx="2" class="level-0"><title>2026-06-21: 0 contributions</title></rect>
  <rect x="750" y="72" width="11" height="11" rx="2" class="level-0"><title>2026-06-22: 0 contributions</title></rect>
  <rect x="750" y="86" width="11" height="11" rx="2" class="level-0"><title>2026-06-23: 0 contributions</title></rect>
  <rect x="750" y="100" width="11" height="11" rx="2" class="level-0"><title>2026-06-24: 0 contributions</title></rect>
  <rect x="750" y="114" width="11" height="11" rx="2" class="level-0"><title>2026-06-25: 0 contributions</title></rect>
  <rect x="750" y="128" width="11" height="11" rx="2" class="level-0"><title>2026-06-26: 0 contributions</title></rect>
  <rect x="750" y="142" width="11" height="11" rx="2" class="level-0"><title>2026-06-27: 0 contributions</title></rect>
  <rect x="764" y="58" width="11" height="11" rx="2" class="level-4"><title>2026-06-28: 3 contributions</title></rect>
  <rect x="764" y="72" width="11" height="11" rx="2" class="level-0"><title>2026-06-29: 0 contributions</title></rect>
  <rect x="764" y="86" width="11" height="11" rx="2" class="level-4"><title>2026-06-30: 3 contributions</title></rect>
  <rect x="764" y="100" width="11" height="11" rx="2" class="level-0"><title>2026-07-01: 0 contributions</title></rect>
  <rect x="764" y="114" width="11" height="11" rx="2" class="level-0"><title>2026-07-02: 0 contributions</title></rect>
  <rect x="764" y="128" width="11" height="11" rx="2" class="level-2"><title>2026-07-03: 1 contribution</title></rect>
  <rect x="764" y="142" width="11" height="11" rx="2" class="level-0"><title>2026-07-04: 0 contributions</title></rect>
  <rect x="778" y="58" width="11" height="11" rx="2" class="level-0"><title>2026-07-05: 0 contributions</title></rect>
  <rect x="778" y="72" width="11" height="11" rx="2" class="level-2"><title>2026-07-06: 1 contribution</title></rect>
  <rect x="778" y="86" width="11" height="11" rx="2" class="level-0"><title>2026-07-07: 0 contributions</title></rect>
  <rect x="778" y="100" width="11" height="11" rx="2" class="level-0"><title>2026-07-08: 0 contributions</title></rect>
  <rect x="778" y="114" width="11" height="11" rx="2" class="level-0"><title>2026-07-09: 0 contributions</title></rect>
  <rect x="778" y="128" width="11" height="11" rx="2" class="level-0"><title>2026-07-10: 0 contributions</title></rect>
  <rect x="778" y="142" width="11" height="11" rx="2" class="level-0"><title>2026-07-11: 0 contributions</title></rect>
  <rect x="792" y="58" width="11" height="11" rx="2" class="level-0"><title>2026-07-12: 0 contributions</title></rect>
  <rect x="792" y="72" width="11" height="11" rx="2" class="level-0"><title>2026-07-13: 0 contributions</title></rect>
  <rect x="792" y="86" width="11" height="11" rx="2" class="level-2"><title>2026-07-14: 1 contribution</title></rect>
  <rect x="792" y="100" width="11" height="11" rx="2" class="level-0"><title>2026-07-15: 0 contributions</title></rect>
  <rect x="792" y="114" width="11" height="11" rx="2" class="level-0"><title>2026-07-16: 0 contributions</title></rect>
  <rect x="792" y="128" width="11" height="11" rx="2" class="level-0"><title>2026-07-17: 0 contributions</title></rect>
  <rect x="792" y="142" width="11" height="11" rx="2" class="level-0"><title>2026-07-18: 0 contributions</title></rect>
  <rect x="806" y="58" width="11" height="11" rx="2" class="level-0"><title>2026-07-19: 0 contributions</title></rect>
  <rect x="806" y="72" width="11" height="11" rx="2" class="level-0"><title>2026-07-20: 0 contributions</title></rect>
  <rect x="806" y="86" width="11" height="11" rx="2" class="level-0"><title>2026-07-21: 0 contributions</title></rect>
  <text x="715" y="169" class="label">Less</text>
  <rect x="746" y="159" width="11" height="11" rx="2" class="level-0" />
  <rect x="760" y="159" width="11" height="11" rx="2" class="level-1" />
  <rect x="774" y="159" width="11" height="11" rx="2" class="level-2" />
  <rect x="788" y="159" width="11" height="11" rx="2" class="level-3" />
  <rect x="802" y="159" width="11" height="11" rx="2" class="level-4" />
  <text x="822" y="169" class="label">More</text>
</svg>
