<svg width="1280" height="540" viewBox="0 0 1280 540" fill="none" xmlns="http://www.w3.org/2000/svg" role="img" aria-labelledby="title desc">
  <title id="title">Pay4att profile banner dark mode</title>
  <desc id="desc">A minimal editorial dark banner for the Pay4att GitHub profile.</desc>
  <rect width="1280" height="540" fill="#14110F"/>
  <rect x="40" y="40" width="1200" height="460" rx="28" fill="#191614" stroke="#3A322C"/>
  <path d="M1030 120C1134 120 1218 204 1218 308C1218 412 1134 496 1030 496" stroke="#D19F74" stroke-width="1.5"/>
  <path d="M1030 152C1116.16 152 1186 221.842 1186 308C1186 394.158 1116.16 464 1030 464" stroke="#7E5F45" stroke-width="1.5"/>
  <path d="M120 404C204 404 272 336 272 252C272 168 340 100 424 100" stroke="#40362E" stroke-width="1.5"/>
  <path d="M120 436C221.62 436 304 353.62 304 252C304 150.38 386.38 68 488 68" stroke="#7B6653" stroke-width="1.5"/>
  <path d="M600 96H1124" stroke="#3A322C" stroke-width="1"/>
  <path d="M156 444H592" stroke="#3A322C" stroke-width="1"/>
  <circle cx="1124" cy="96" r="4" fill="#F4EEE6"/>
  <circle cx="592" cy="444" r="4" fill="#F4EEE6"/>
  <text x="120" y="118" fill="#B6A692" font-family="'Segoe UI', Arial, sans-serif" font-size="18" letter-spacing="4.5">PERSONAL PROJECTS / NOTES / EXPERIMENTS</text>
  <text x="116" y="248" fill="#F4EEE6" font-family="Georgia, 'Times New Roman', serif" font-size="116" font-style="italic">Pay4att</text>
  <path d="M122 286H518" stroke="#F4EEE6" stroke-width="2"/>
  <text x="120" y="332" fill="#D4C6B7" font-family="'Segoe UI', Arial, sans-serif" font-size="28">A restrained GitHub profile built around clean work,</text>
  <text x="120" y="372" fill="#D4C6B7" font-family="'Segoe UI', Arial, sans-serif" font-size="28">careful experiments, and a preference for quiet details.</text>
  <rect x="848" y="314" width="272" height="108" rx="20" fill="#F1E9DF"/>
  <text x="882" y="356" fill="#2A241F" font-family="'Segoe UI', Arial, sans-serif" font-size="18" letter-spacing="3">CURRENT SURFACE</text>
  <text x="882" y="392" fill="#6D513A" font-family="Georgia, 'Times New Roman', serif" font-size="26">GitHub as a clean portfolio</text>
</svg>
