<?xml version="1.0" encoding="UTF-8"?>
<svg xmlns="http://www.w3.org/2000/svg" width="1000" height="250" viewBox="0 0 1000 250" role="img" aria-labelledby="title desc">
  <title id="title">Pay4att's LeetCode China progress</title>
  <desc id="desc">91 problems solved: 62 easy, 29 medium, and 0 hard.</desc>
  <defs>
    <linearGradient id="bg" x1="0" y1="0" x2="1" y2="1">
      <stop offset="0" stop-color="#0d1117" />
      <stop offset="1" stop-color="#161b22" />
    </linearGradient>
    <style>
      text { font-family: ui-sans-serif, -apple-system, BlinkMacSystemFont, "Segoe UI", sans-serif; }
      .eyebrow { fill: #ffa116; font-size: 12px; font-weight: 700; letter-spacing: 2px; }
      .total { fill: #f0f6fc; font-size: 58px; font-weight: 750; }
      .stat { fill: #f0f6fc; font-size: 22px; font-weight: 700; }
      .label { fill: #8b949e; font-size: 12px; }
      .difficulty { font-size: 13px; font-weight: 650; }
    </style>
  </defs>
  <rect x="1" y="1" width="998" height="248" rx="16" fill="url(#bg)" stroke="#30363d" />
  <text x="34" y="38" class="eyebrow">LEETCODE CN / PROGRESS</text>
  <text x="966" y="38" text-anchor="end" class="label">Updated 2026-07-23</text>

  <text x="34" y="113" class="total">91</text>
  <text x="38" y="138" class="label">problems solved</text>
  <text x="38" y="185" class="stat">77.8%</text>
  <text x="38" y="206" class="label">users beaten</text>

  <text x="235" y="82" class="difficulty" fill="#3fb950">Easy</text>
  <text x="235" y="111" class="stat">62</text>
  <text x="365" y="82" class="difficulty" fill="#d29922">Medium</text>
  <text x="365" y="111" class="stat">29</text>
  <text x="515" y="82" class="difficulty" fill="#f85149">Hard</text>
  <text x="515" y="111" class="stat">0</text>

  <rect x="235" y="136" width="480" height="12" rx="6" fill="#21262d" />
  <rect x="235" y="136" width="327.03" height="12" rx="6" fill="#3fb950" />
  <rect x="562.03" y="136" width="152.97" height="12" fill="#d29922" />
  <rect x="715.00" y="136" width="0.00" height="12" rx="6" fill="#f85149" />

  <text x="235" y="187" class="stat">5</text>
  <text x="235" y="208" class="label">active days</text>
  <text x="375" y="187" class="stat">0</text>
  <text x="375" y="208" class="label">current streak</text>
  <text x="515" y="187" class="stat">3</text>
  <text x="515" y="208" class="label">best streak</text>
  <text x="655" y="187" class="stat">54</text>
  <text x="655" y="208" class="label">submissions / year</text>

  <path d="M790 72h142v112H790z" fill="#ffa116" opacity=".06" />
  <path d="M821 160l27-49 18 25 23-45 20 69" fill="none" stroke="#ffa116" stroke-width="6" stroke-linecap="round" stroke-linejoin="round" />
  <circle cx="889" cy="91" r="7" fill="#ffa116" />
</svg>
